<?xml version="1.0" encoding="UTF-8"?>
<svg viewBox="0 0 678.61108 458.68005" xmlns="http://www.w3.org/2000/svg" xmlns:xlink="http://www.w3.org/1999/xlink">
 <defs>
  <filter id="c">
   <feGaussianBlur stdDeviation=".41431"/>
  </filter>
  <filter id="ae" x="-.0864" y="-.11145" width="1.1728" height="1.2229">
   <feGaussianBlur stdDeviation="11.145"/>
  </filter>
  <linearGradient id="a">
   <stop stop-color="#000593" offset="0"/>
   <stop stop-color="#00023a" offset="1"/>
  </linearGradient>
  <linearGradient id="e">
   <stop stop-color="#fff" stop-opacity=".64948" offset="0"/>
   <stop stop-color="#fff" stop-opacity="0" offset="1"/>
  </linearGradient>
  <linearGradient id="b">
   <stop stop-opacity=".08247" offset="0"/>
   <stop stop-opacity="0" offset="1"/>
  </linearGradient>
  <linearGradient id="h" x1="136.5" x2="313.75" y1="161.5" y2="285.25" gradientTransform="matrix(-1.1824 0 0 1.1824 750.03 227.19)" gradientUnits="userSpaceOnUse">
   <stop stop-color="#ffefef" stop-opacity=".58163" offset="0"/>
   <stop stop-color="#ffefef" stop-opacity=".14286" offset="1"/>
  </linearGradient>
  <linearGradient id="g" x1="280.28" x2="322.26" y1="261.41" y2="275.2" gradientTransform="matrix(-1.1824 0 0 1.1824 750.03 227.19)" gradientUnits="userSpaceOnUse">
   <stop stop-color="#fff" stop-opacity=".11224" offset="0"/>
   <stop stop-color="#fff" stop-opacity=".89796" offset="1"/>
  </linearGradient>
  <linearGradient id="ad" x1="677.05" x2="677.02" y1="461.82" y2="429.77" gradientUnits="userSpaceOnUse" xlink:href="#a"/>
  <linearGradient id="ac" x1="14.402" x2="12.767" y1="1583.6" y2="1586.4" gradientTransform="matrix(8.6505 0 0 8.806 566.58 -13540)" gradientUnits="userSpaceOnUse" xlink:href="#a"/>
  <linearGradient id="ab" x2="0" y1="471.22" y2="432.33" gradientUnits="userSpaceOnUse" xlink:href="#a"/>
  <linearGradient id="aa" x1="19.006" x2="19.424" y1="1586.4" y2="1590.5" gradientTransform="matrix(8.6505 0 0 8.806 566.58 -13540)" gradientUnits="userSpaceOnUse" xlink:href="#a"/>
  <linearGradient id="z" x2="0" y1="489.37" y2="468.24" gradientUnits="userSpaceOnUse" xlink:href="#a"/>
  <linearGradient id="y" x2="0" y1="451.59" y2="497.83" gradientUnits="userSpaceOnUse" xlink:href="#a"/>
  <linearGradient id="x" x1="48.936" x2="47.921" y1="1546.1" y2="1548.8" gradientTransform="matrix(8.6505 0 0 8.806 566.58 -13540)" gradientUnits="userSpaceOnUse" xlink:href="#a"/>
  <linearGradient id="w" x1="59.309" x2="53.797" y1="1550.5" y2="1554.2" gradientTransform="matrix(8.6505 0 0 8.806 566.58 -13540)" gradientUnits="userSpaceOnUse" xlink:href="#a"/>
  <linearGradient id="v" x1="55.944" x2="60.064" y1="1555.4" y2="1551" gradientTransform="matrix(8.6505 0 0 8.806 566.58 -13540)" gradientUnits="userSpaceOnUse" xlink:href="#a"/>
  <linearGradient id="u" x1="72.004" x2="59.156" y1="1548.4" y2="1566.8" gradientTransform="matrix(8.6505 0 0 8.806 566.58 -13540)" gradientUnits="userSpaceOnUse" xlink:href="#a"/>
  <linearGradient id="t" x1="59.484" x2="69.312" y1="1570.1" y2="1557.6" gradientTransform="matrix(8.6505 0 0 8.806 566.58 -13540)" gradientUnits="userSpaceOnUse" xlink:href="#a"/>
  <linearGradient id="d" x1="89.157" x2="59.753" y1="1597.3" y2="1593.9" gradientTransform="matrix(8.6505 0 0 8.806 566.58 -13540)" gradientUnits="userSpaceOnUse" xlink:href="#a"/>
  <linearGradient id="s" x1="8.7991" x2="8.3377" y1="1589.8" y2="1581.5" gradientTransform="matrix(8.6505 0 0 8.806 566.58 -13540)" gradientUnits="userSpaceOnUse" xlink:href="#a"/>
  <linearGradient id="r" x1="7.6469" x2="8.1456" y1="1582.1" y2="1586.4" gradientTransform="matrix(8.6505 0 0 8.806 566.58 -13540)" gradientUnits="userSpaceOnUse" xlink:href="#a"/>
  <linearGradient id="q" x1="23.75" x2="25.165" y1="1627.2" y2="1583.7" gradientTransform="matrix(8.6505 0 0 8.806 566.58 -13540)" gradientUnits="userSpaceOnUse" xlink:href="#a"/>
  <linearGradient id="p" x1="-159.14" x2="-143.82" y1="1539.4" y2="1556.5" gradientUnits="userSpaceOnUse" xlink:href="#e"/>
  <linearGradient id="o" x1="-.89604" x2="-4.9628" y1="1561.6" y2="1559" gradientUnits="userSpaceOnUse" xlink:href="#e"/>
  <linearGradient id="n" x2="0" y1="610.51" y2="507.67" gradientUnits="userSpaceOnUse" xlink:href="#b"/>
  <linearGradient id="m" x2="0" y1="265.51" y2="-36.438" gradientUnits="userSpaceOnUse" xlink:href="#b"/>
  <linearGradient id="l" x2="0" y1="443.22" y2="380.96" gradientUnits="userSpaceOnUse" xlink:href="#b"/>
  <linearGradient id="k" x2="0" y1="525.74" y2="421.08" gradientUnits="userSpaceOnUse" xlink:href="#b"/>
  <linearGradient id="j" x2="0" y1="484.19" y2="410.81" gradientUnits="userSpaceOnUse" xlink:href="#b"/>
  <linearGradient id="i" x1="63" x2="64.415" y1="1589.3" y2="1584.2" gradientTransform="matrix(8.6505 0 0 8.806 566.58 -13540)" gradientUnits="userSpaceOnUse" xlink:href="#b"/>
  <radialGradient id="f" cx="-32.945" cy="1548.1" r="22.421" gradientTransform="matrix(-1.8804 2.3609 -2.5012 -2.3991 3780.3 5333)" gradientUnits="userSpaceOnUse">
   <stop stop-color="#16009e" offset="0"/>
   <stop stop-color="#7ccbff" offset=".5"/>
   <stop stop-color="#fff" offset="1"/>
  </radialGradient>
 </defs>
 <g transform="translate(-84.52 -223.49)">
  <path transform="matrix(-1.1268 0 0 1.1268 733.55 235.05)" d="m183 323-130-27-52-146 195-54 59 141-72 86z" fill="#1a1a1a" fill-rule="evenodd" filter="url(#ae)" stroke="#000"/>
  <path d="m622.77 545.38-10.262 5.6285-20.03-13.245 10.052-5.3008 20.24 12.918z" fill="none" stroke="#000" stroke-width="1.1824"/>
  <path d="m562.59 506.51-9.9318 4.8769-17.97-11.726 9.9498-4.7072 17.952 11.557z" fill="none" stroke="#000" stroke-width="1.1824"/>
  <path d="m544.57 494.91-9.8094 4.6418-17.33-11.504 9.7022-4.4266 17.437 11.289z" fill="none" stroke="#000" stroke-width="1.1824"/>
  <path d="m527.3 483.63-9.9499 4.5387-14.814-9.799 9.7434-4.3075 15.02 9.5678z" fill="none" stroke="#000" stroke-width="1.1824"/>
  <path d="m512.27 474.04-9.7904 4.3266-13.414-9.0267 9.451-4.0579 13.753 8.758z" fill="none" stroke="#000" stroke-width="1.1824"/>
  <path d="m498.46 465.3-9.2506 3.9733-13.461-8.5611 8.8699-4.3517 13.842 8.9395z" fill="none" stroke="#000" stroke-width="1.1824"/>
  <path d="m663.98 551.55-190.79 111.46-184.68-179.72 165.31-61.771 210.17 130.03z" fill-rule="evenodd" stroke="#333" stroke-linecap="round" stroke-linejoin="round" stroke-width=".94592"/>
  <path d="m421.91 433.52c116.07 68.116 44.042 52.531 203.45 139.97l-101.46 59.89c-96.857-29.587-204.54-86.019-191.44-166.65l68.794-25.556 20.655-7.6486z" fill="url(#h)" fill-rule="evenodd"/>
  <path d="m664.14 551.52-0.15229 15.28-189.91 114.9c-3.7602-2.0266-5.3808-13.973-1.2183-18.706l191.28-111.48z" fill-rule="evenodd" stroke="#333" stroke-linecap="round" stroke-linejoin="round" stroke-width=".94592"/>
  <path d="m288.53 483.37c-1.1367 3.5069-2.3466 11.141 0.96687 14.276l184.28 183.75c-4.8779-5.5821-3.3756-12.076-0.91375-18.706l-184.33-179.32z" fill-rule="evenodd" stroke="#333" stroke-linecap="round" stroke-linejoin="round" stroke-width=".94592"/>
  <path d="m702.51 318.61s-32.895 234.36-35.332 231.87-212.6-130.68-212.6-130.68l-0.60919-180.16 248.54 78.969z" fill="#1a1a1a" fill-rule="evenodd" stroke="#333" stroke-linecap="round" stroke-linejoin="round" stroke-width=".94592"/>
  <path d="m461.3 237.99c-5.8023-1.6286-5.6661 0.58546-7.2941 1.658l248.51 78.353c2.2347-1.9929 3.1698-1.179 8.18-1.0252l-249.39-78.986z" fill="#1a1a1a" fill-rule="evenodd" stroke="#333" stroke-linecap="round" stroke-linejoin="round" stroke-width=".94592"/>
  <path d="m430.47 430.51 206.06 136.4 10.399-5.8214-207.48-134.13-8.9736 3.5561z" fill="none" stroke="#999" stroke-width="1.1824"/>
  <path d="m611.29 550.1-22.584-14.772 22.584 14.772z" fill="none" opacity=".3" stroke="#000" stroke-width="1.1824"/>
  <path d="m441.73 555.67-44.835-37.497c-2.5694-2.1489-7.9846-2.414-12.188-0.60266l-22.56 10.058c-4.48 1.9307-6.1923 5.3747-3.7914 7.7316l41.458 40.097c2.868 2.8155 9.069 3.2263 13.844 0.90836l25.586-12.188c4.4496-2.16 5.5334-5.9589 2.4866-8.507" fill="#999" opacity=".89" stroke="#000" stroke-linecap="round" stroke-linejoin="round" stroke-width="1.1265"/>
  <path d="m562.24 506.48c-2.9333-2.2479-10.336 2.061-9.9093 4.772l9.9093-4.772z" fill="#666" fill-rule="evenodd" opacity=".9972" stroke="#000" stroke-linecap="round" stroke-linejoin="round" stroke-width=".23648"/>
  <path d="m612.83 551.17-20.255-13.48c1.6957-3.4759 4.8617-5.9678 9.9459-5.5119l20.138 13.228c-3.5114-2.3988-10.333 2.9214-9.8287 5.7642z" fill="#808080" fill-rule="evenodd" stroke="#000" stroke-linejoin="round" stroke-width=".23648"/>
  <path d="m622.68 545.42c-4.0076-2.5907-10.869 3.8325-9.8164 5.8536l9.8164-5.8536z" fill="none" opacity=".69" stroke="#000" stroke-linecap="round" stroke-linejoin="round" stroke-width=".23648"/>
  <path d="m552.38 511.27-17.108-11.307c0.8612-3.258 3.4344-5.3676 9.4962-4.8404l17.514 11.381c-3.0934-2.451-10.75 2.4631-9.9026 4.7665z" fill="#4d4d4d" fill-rule="evenodd" stroke="#000" stroke-linejoin="round" stroke-width=".23648"/>
  <path d="m535.39 499.98-17.293-11.27c1.1938-3.3688 4.081-5.5524 9.8656-4.5633l17.477 11.344c-3.5052-1.529-9.4859 0.4028-10.05 4.4894z" fill="#4d4d4d" fill-rule="evenodd" stroke="#000" stroke-linejoin="round" stroke-width=".23648"/>
  <path d="m518.17 488.69-15.334-10.198c2.0067-3.1101 4.506-4.407 9.5331-4.2492l15.667 9.9211c-3.69-0.86395-8.9316 0.40279-9.8657 4.5264z" fill="#4d4d4d" fill-rule="evenodd" stroke="#000" stroke-linejoin="round" stroke-width=".23648"/>
  <path d="m502.78 478.47-13.394-8.9234c2.3023-2.8884 4.9494-4.1114 9.3114-4.1014l13.727 8.8126c-3.8563-0.34668-7.3982 0.75379-9.644 4.2123z" fill="#4d4d4d" fill-rule="evenodd" stroke="#000" stroke-linejoin="round" stroke-width=".23648"/>
  <path d="m489.42 469.59-13.561-8.9419c1.711-3.9969 5.0972-4.7026 8.9419-4.3601l14.17 9.3299c-3.4313-0.38361-6.5114 0.1811-9.5516 3.9722z" fill="#4d4d4d" fill-rule="evenodd" stroke="#000" stroke-linejoin="round" stroke-width=".23648"/>
  <path d="m486.67 560.89-57.913-46.589c-0.69667-0.55411-2.1343-0.56558-3.2267-0.0262l-8.8452 4.3497c-1.1089 0.54744-1.4514 1.4448-0.76427 2.0125l57.03 47.929c0.85488 0.7063 2.4974 0.74207 3.6782 0.0794l9.5092-5.3373c1.1613-0.65169 1.3964-1.7306 0.53156-2.4185" fill="#808080"/>
  <path d="m489.73 562.76-13.135 7.4623 9.6706 8.1476 13.355-7.5292-9.8906-8.0807z" fill="#f0f" fill-rule="evenodd" stroke="#000" stroke-width="1.1824"/>
  <path d="m500.85 571.76-13.481 7.4865 10.051 8.4522 13.135-8.1095-9.7059-7.8292z" fill="#f0f" fill-rule="evenodd" stroke="#000" stroke-width="1.1824"/>
  <path d="m511.59 580.39-13.139 8.0935 10.345 8.6094 13.802-7.88-11.008-8.8229z" fill="#f0f" fill-rule="evenodd" stroke="#000" stroke-width="1.1824"/>
  <path d="m523.63 590.11-13.854 7.8926 12.696 10.707 14.079-8.0546-12.922-10.545z" fill="#f0f" fill-rule="evenodd" stroke="#000" stroke-width="1.1824"/>
  <path d="m426.55 512.04-12.15 6.0144-9.2137-7.6336 12.211-5.6862 9.1533 7.3054z" fill="#f0f" fill-rule="evenodd" stroke="#000" stroke-width="1.1824"/>
  <path d="m416.26 503.87-8.7308-7.0431-12.49 5.3462 9.0786 7.3641 12.142-5.6672z" fill="#f0f" fill-rule="evenodd" stroke="#000" stroke-width="1.1824"/>
  <path d="m406.35 495.93-12.382 5.3487-8.6642-7.215 11.956-5.5312 9.0903 7.3975z" fill="#f0f" fill-rule="evenodd" stroke="#000" stroke-width="1.1824"/>
  <path d="m407.77 495.38 10.399-5.1545-9.3612-7.2801-10.315 5.0038 9.2767 7.4308z" fill="#f0f" fill-rule="evenodd" stroke="#000" stroke-width="1.1824"/>
  <path d="m537.84 599.89 12.642-7.1173-25.709-19.681-11.916 6.5536 24.983 20.245z" fill="#f0f" fill-rule="evenodd" stroke="#000" stroke-width="1.1824"/>
  <path d="m407.6 482-10.146 4.9748-24.3-19.632 10.513-4.1177 23.934 18.775z" fill="#f0f" fill-rule="evenodd" stroke="#000" stroke-width="1.1824"/>
  <path d="m398.35 473.13-13.341-10.482 24.954-9.6855 16.649 12.301-11.361 4.5506-3.1479-2.4072-13.752 5.7232z" fill="#f0f" fill-rule="evenodd" stroke="#000" stroke-width="1.1824"/>
  <path d="m411.6 452.31 22.788 16.918 10.775-4.599-23.295-16.282-10.269 3.9623z" fill="#f0f" fill-rule="evenodd" stroke="#000" stroke-width="1.1824"/>
  <path d="m551.78 592.06-22.091-16.94 14.032-7.3884 22.128 16.466-14.069 7.8622z" fill="#f0f" fill-rule="evenodd" stroke="#000" stroke-width="1.1824"/>
  <path d="m567.28 583.5-17.495-13.066 12.707-6.8439 17.58 12.599-12.793 7.31z" fill="#f0f" fill-rule="evenodd" stroke="#000" stroke-width="1.1824"/>
  <path d="m581.39 575.52-12.846-9.2452 12.145-6.7008 12.703 9.1245-12.002 6.8216z" fill="#f0f" fill-rule="evenodd" stroke="#000" stroke-width="1.1824"/>
  <path d="m579.42 558.77-10.447-7.4194-12.076 6.3424 10.561 7.724 11.961-6.647z" fill="#f0f" fill-rule="evenodd" stroke="#000" stroke-width="1.1824"/>
  <path d="m511.66 578.7-9.5313-7.6146 12.335-6.2882 9.2072 7.3765-12.011 6.5262z" fill="#f0f" fill-rule="evenodd" stroke="#000" stroke-width="1.1824"/>
  <path d="m528.56 574.2-9.7336-7.6331 13.76-7.3319 9.8126 7.3727-13.839 7.5923z" fill="#f0f" fill-rule="evenodd" stroke="#000" stroke-width="1.1824"/>
  <path d="m548.44 569.56-9.769-7.4084 12.783-6.7635 9.7587 7.265-12.773 6.907z" fill="#f0f" fill-rule="evenodd" stroke="#000" stroke-width="1.1824"/>
  <path d="m567.74 550.53-10.178-7.0425-11.788 6.2255 9.9502 7.1409 12.015-6.324z" fill="#f0f" fill-rule="evenodd" stroke="#000" stroke-width="1.1824"/>
  <path d="m537.45 561.27-9.8071-7.5608 12.364-6.3893 10.292 7.265-12.849 6.6851z" fill="#f0f" fill-rule="evenodd" stroke="#000" stroke-width="1.1824"/>
  <path d="m556.3 542.64-9.9352-7.0156-11.734 6.064 9.8425 7.1409 11.827-6.1893z" fill="#f0f" fill-rule="evenodd" stroke="#000" stroke-width="1.1824"/>
  <path d="m517.83 565.77-9.9621-7.7854 13.684-7.0274 9.8126 7.3727-13.534 7.44z" fill="#f0f" fill-rule="evenodd" stroke="#000" stroke-width="1.1824"/>
  <path d="m500.82 570.21-9.893-8.0905 12.143-6.128 10.179 7.7684-12.43 6.4501z" fill="#f0f" fill-rule="evenodd" stroke="#000" stroke-width="1.1824"/>
  <path d="m489.74 561.26-10.312-8.2809 11.991-5.9757 10.446 8.0349-12.125 6.2217z" fill="#f0f" fill-rule="evenodd" stroke="#000" stroke-width="1.1824"/>
  <path d="m478.2 552.08-8.8162-6.906 12.077-5.855 8.7888 6.7677-12.049 5.9932z" fill="#f0f" fill-rule="evenodd" stroke="#000" stroke-width="1.1824"/>
  <path d="m468.26 544.21-9.8392-7.8213 11.915-5.7565 9.9102 7.7238-11.986 5.854z" fill="#f0f" fill-rule="evenodd" stroke="#000" stroke-width="1.1824"/>
  <path d="m457.49 535.49-9.7027-7.7098 11.687-5.595 9.7226 7.54-11.706 5.7648z" fill="#f0f" fill-rule="evenodd" stroke="#000" stroke-width="1.1824"/>
  <path d="m446.71 526.93-8.9616-7.1229 11.659-5.3742 8.8711 6.9085-11.568 5.5886z" fill="#f0f" fill-rule="evenodd" stroke="#000" stroke-width="1.1824"/>
  <path d="m436.66 518.93-7.9182-6.7183 11.156-5.2012 8.395 6.567-11.633 5.3525z" fill="#f0f" fill-rule="evenodd" stroke="#000" stroke-width="1.1824"/>
  <path d="m427.71 511.32-8.9842-7.1371 11.042-4.9728 8.928 6.9096-10.986 5.2002z" fill="#f0f" fill-rule="evenodd" stroke="#000" stroke-width="1.1824"/>
  <path d="m417.62 503.28-8.6796-6.9468 10.471-5.125 9.0422 6.9858-10.834 5.086z" fill="#f0f" fill-rule="evenodd" stroke="#000" stroke-width="1.1824"/>
  <path d="m545.04 534.73-10.797-7.554-11.25 5.8486 10.327 7.8409 11.719-6.1355z" fill="#f0f" fill-rule="evenodd" stroke="#000" stroke-width="1.1824"/>
  <path d="m533.05 526.29-9.9352-7.0156-10.926 5.9563 9.681 6.8179 11.181-5.7586z" fill="#f0f" fill-rule="evenodd" stroke="#000" stroke-width="1.1824"/>
  <path d="m521.98 518.45-10.393-7.2848-10.928 5.8894 10.408 7.3563 10.913-5.9609z" fill="#f0f" fill-rule="evenodd" stroke="#000" stroke-width="1.1824"/>
  <path d="m510.42 510.34-9.0476-6.2895-11.33 5.2079 9.4183 7.0017 10.959-5.9201z" fill="#f0f" fill-rule="evenodd" stroke="#000" stroke-width="1.1824"/>
  <path d="m500.25 503.12-9.8814-6.8541-11.196 5.0948 9.681 7.0871 11.396-5.3278z" fill="#f0f" fill-rule="evenodd" stroke="#000" stroke-width="1.1824"/>
  <path d="m489.21 495.47-9.771-6.8179-11.196 4.8525 9.7517 7.0283 11.215-5.0629z" fill="#f0f" fill-rule="evenodd" stroke="#000" stroke-width="1.1824"/>
  <path d="m478.15 487.68-9.9352-7.0156-11.034 4.8794 9.8425 7.1409 11.127-5.0048z" fill="#f0f" fill-rule="evenodd" stroke="#000" stroke-width="1.1824"/>
  <path d="m466.93 479.78-8.9122-6.3425-11.061 4.7718 8.9541 6.4679 11.019-4.8971z" fill="#f0f" fill-rule="evenodd" stroke="#000" stroke-width="1.1824"/>
  <path d="m456.8 472.59-10.406-7.1233-10.9 4.6372 10.071 7.3294 11.235-4.8432z" fill="#f0f" fill-rule="evenodd" stroke="#000" stroke-width="1.1824"/>
  <path d="m520.49 550.14-9.9597-7.4553-13.612 6.9478 9.8981 7.5378 13.674-7.0302z" fill="#f0f" fill-rule="evenodd" stroke="#000" stroke-width="1.1824"/>
  <path d="m509.41 541.75-9.4768-6.9652-13.534 6.7387 9.4476 7.2568 13.563-7.0303z" fill="#f0f" fill-rule="evenodd" stroke="#000" stroke-width="1.1824"/>
  <path d="m498.76 533.92-9.5962-7.1847-13.34 6.5518 9.4846 7.4045 13.452-6.7716z" fill="#f0f" fill-rule="evenodd" stroke="#000" stroke-width="1.1824"/>
  <path d="m488.05 525.9-13.302 6.5217-8.6946-6.7038 13.221-6.395s8.7387 6.614 8.7756 6.5771z" fill="#f0f" fill-rule="evenodd" stroke="#000" stroke-width="1.1824"/>
  <path d="m478.23 518.37-13.302 6.5217-8.6946-6.7038 13.221-6.395s8.7387 6.614 8.7756 6.5771z" fill="#f0f" fill-rule="evenodd" stroke="#000" stroke-width="1.1824"/>
  <path d="m468.31 510.91-13.191 6.4108-9.3578-7.4148 12.776-6.0165 9.7733 7.0205z" fill="#f0f" fill-rule="evenodd" stroke="#000" stroke-width="1.1824"/>
  <path d="m457.33 502.96-12.727 6.1037-9.138-7.1103 13.025-5.6352 8.8403 6.6418z" fill="#f0f" fill-rule="evenodd" stroke="#000" stroke-width="1.1824"/>
  <path d="m447.12 495.35-12.779 5.6856-8.5901-6.5993 12.803-5.5066 8.5666 6.4204z" fill="#f0f" fill-rule="evenodd" stroke="#000" stroke-width="1.1824"/>
  <path d="m437.38 488.06-12.703 5.5132-8.7685-6.7777 12.696-5.3126 8.7756 6.5771z" fill="#f0f" fill-rule="evenodd" stroke="#000" stroke-width="1.1824"/>
  <path d="m427.43 480.6-12.649 5.3198-7.4405-5.711 12.542-5.3238 7.5476 5.7149z" fill="#f0f" fill-rule="evenodd" stroke="#000" stroke-width="1.1824"/>
  <path d="m418.66 473.96-12.361 5.4243-6.8657-5.3452 12.437-5.1931 6.7899 5.114z" fill="#f0f" fill-rule="evenodd" stroke="#000" stroke-width="1.1824"/>
  <path d="m526.52 552.77-9.8071-7.5608 12.364-6.3894 10.292 7.265-12.849 6.6851z" fill="#f0f" fill-rule="evenodd" stroke="#000" stroke-width="1.1824"/>
  <path d="m515.28 544.19-10.121-7.4562 12.678-6.4939 10.292 7.265-12.849 6.6851z" fill="#f0f" fill-rule="evenodd" stroke="#000" stroke-width="1.1824"/>
  <path d="m503.92 535.87-10.225-7.404 12.364-6.0236 10.03 7.056-12.169 6.3715z" fill="#f0f" fill-rule="evenodd" stroke="#000" stroke-width="1.1824"/>
  <path d="m492.6 527.49-10.602-7.7086 12.05-5.946 10.809 7.7084-12.257 5.9461z" fill="#f0f" fill-rule="evenodd" stroke="#000" stroke-width="1.1824"/>
  <path d="m480.96 518.82-9.0232-6.7247 11.885-5.7533 8.9421 6.5245-11.804 5.9535z" fill="#f0f" fill-rule="evenodd" stroke="#000" stroke-width="1.1824"/>
  <path d="m470.9 511.16-8.7881-6.3066 11.606-5.7623 8.8809 6.429-11.699 5.64z" fill="#f0f" fill-rule="evenodd" stroke="#000" stroke-width="1.1824"/>
  <path d="m460.82 503.93-8.5888-6.5948 11.258-5.7011 8.9257 6.4469-11.595 5.849z" fill="#f0f" fill-rule="evenodd" stroke="#000" stroke-width="1.1824"/>
  <path d="m450.87 496.65-8.8464-6.7478 11.234-5.3569 8.8876 6.3043-11.276 5.8004z" fill="#f0f" fill-rule="evenodd" stroke="#000" stroke-width="1.1824"/>
  <path d="m440.94 488.92-8.3455-6.0252 11.16-5.0592 8.1867 5.7295-11.001 5.3549z" fill="#f0f" fill-rule="evenodd" stroke="#000" stroke-width="1.1824"/>
  <path d="m431.36 482-7.2988-5.575 10.953-4.9785 7.5744 5.5406-11.229 5.0129z" fill="#f0f" fill-rule="evenodd" stroke="#000" stroke-width="1.1824"/>
  <path d="m422.95 475.57-6.306-4.8957 11.11-4.4036 6.0591 4.391-10.863 4.9084z" fill="#f0f" fill-rule="evenodd" stroke="#000" stroke-width="1.1824"/>
  <path d="m392.80578,500.31279-6.36346-5.29912c-.63178-.52612-.45331-1.2666.40296-1.66274l8.7804-4.062c.90302-.41774 2.16593-.32207 2.8286.21719l6.6764,5.43315c.67461.54899.46203,1.31839-.47345,1.72248l-9.0933,3.92798c-.88651.38295-2.11534.25833-2.75815-.27694" fill="#808080" opacity=".9972"/>
  <path d="m470.84382,544.47094 9.19031-4.45565c.79052-.38326 1.89092-.33323 2.46907.11202l6.68837,5.15031c.58545.45084.42334,1.1294-.36532,1.52168l-9.16946,4.56086c-.80668.40124-1.93041.35406-2.51775-.10601l-6.70924-5.25555c-.57989-.45427-.39441-1.13567.41402-1.52762" fill="#808080" opacity=".9972"/>
  <path d="m456.89774,473.91517-8.79518,3.79424c-.63509.27399-.74099.78817-.23617,1.15282l7.11994,5.14299c.51133.36934 1.43339.44022 2.06612.15902l8.76186-3.89389c.61783-.27457.70451-.78709.19561-1.14925l-7.08662-5.04331c-.50247-.35761-1.40533-.43018-2.02556-.16262" fill="#808080" opacity=".9972"/>
  <path d="m498.57171,535.46534-10.76103,5.3581c-.78313.38993-.99104,1.03023-.46341,1.4355l7.51213,5.77009c.5446.41831 1.6174.42734 2.40249.0203l10.78418-5.58986c.75433-.39101.91972-1.02878.37364-1.43013l-7.53532-5.53831c-.52944-.38914-1.5597-.40071-2.31268-.0258" fill="#808080" opacity=".9972"/>
  <path d="m522.37076,519.68356-9.47536,5.16526c-.39198.2137-.41996.58751-.0635.83855l8.39567,5.91267c.3556.25043.96419.28602 1.36529.0794l9.69586-4.99381c.42148-.21709.46768-.59962.10277-.8573l-8.61616-6.08414c-.36584-.25835-.99262-.28521-1.40454-.0607" fill="#808080" opacity=".9972"/>
  <path d="m510.73 598.81 10.759 9.0732c0.54506 0.45964 1.4642 0.5557 2.0601 0.21479l11.932-6.8259c0.59393-0.33977 0.62484-0.97818 0.0701-1.4309l-10.95-8.936c-0.53737-0.43853-1.4398-0.52308-2.0242-0.19013l-11.74 6.6887c-0.58632 0.33404-0.63393 0.96096-0.10601 1.4062" fill="#808080" opacity=".9972"/>
  <path d="m480.485,552.45084 9.89419-4.9307c.57421-.28616 1.43456-.20959 1.93072.17203l8.61898,6.62965c.51596.39686.46544.95648-.11503,1.25435l-10.00486,5.13363c-.59425.30493-1.48419.22067-1.99364-.18847l-8.50834-6.83257c-.48966-.39321-.40953-.94514.17799-1.23792" fill="#808080" opacity=".9972"/>
  <path d="m510.72245,511.63617-9.18699,4.95108c-.4849.26133-.50726.73203-.0498,1.0554l8.7497,6.18427c.46113.32594 1.22253.3754 1.7068.11086l9.17439-5.01119c.47897-.26163.49358-.73208.0331-1.05486l-8.73709-6.12416c-.45684-.32022-1.21047-.36993-1.69014-.11144" fill="#808080" opacity=".9972"/>
  <path d="m547.6 590.57-20.279-15.524c-1.4163-1.0842-3.1064-1.6442-3.7998-1.2628l-9.4032 5.1717c-0.69869 0.38426-0.1615 1.5851 1.2144 2.7001l19.706 15.969c1.5466 1.2533 3.3983 1.9336 4.1397 1.5161l9.976-5.6165c0.73534-0.41401 0.0365-1.7351-1.5546-2.9531" fill="#808080" opacity=".9972"/>
  <path d="m520.4 565.74 10.677-5.6891c0.84196-0.44865 2.0006-0.44688 2.6006 3e-3l7.6139 5.7207c0.61803 0.46434 0.43637 1.2121-0.41018 1.6765l-10.738 5.8911c-0.87124 0.47798-2.0687 0.47564-2.6819-6e-3l-7.5526-5.9227c-0.59504-0.46664-0.37456-1.2138 0.49149-1.6753" fill="#808080" opacity=".9972"/>
  <path d="m528.92 553.05 9.8314-5.0806c0.69952-0.36148 1.7144-0.33332 2.2782 0.0646l8.1823 5.776c0.60475 0.42686 0.50881 1.0763-0.21804 1.4545l-10.217 5.3157c-0.73126 0.38047-1.7862 0.32763-2.3625-0.1167l-7.797-6.0111c-0.53713-0.4141-0.40113-1.0389 0.30246-1.4025" fill="#808080" opacity=".9972"/>
  <path d="m556.68054,543.95305-10.0273,5.29565c-.48696.25718-.55313.69803-.14788.98886l8.46386,6.07422c.41819.30011 1.15484.33174 1.65118.0705l10.22066-5.37939c.4979-.26206.55395-.71166.12618-1.00764l-8.6572-5.99048c-.4145-.28681-1.14101-.30972-1.6295-.0518" fill="#808080" opacity=".9972"/>
  <path d="m488.28 580.01 8.2033 6.8982c0.52013 0.43736 1.5098 0.43804 2.2141 3e-3l10.717-6.6168c0.63489-0.39198 0.73868-1.0322 0.23689-1.437l-7.9214-6.3898c-0.48678-0.39266-1.4004-0.41817-2.0526-0.056l-10.999 6.1085c-0.72215 0.40106-0.90199 1.0661-0.39839 1.4896" fill="#808080" opacity=".9972"/>
  <path d="m453.72 496.58 8.2684-4.1872c0.82936-0.42002 2.0121-0.3864 2.6539 0.0771l6.555 4.7346c0.67147 0.48498 0.52615 1.2239-0.32807 1.6548l-8.5158 4.2959c-0.85137 0.42948-2.0587 0.37428-2.7048-0.12182l-6.3076-4.8432c-0.61761-0.47424-0.44763-1.1916 0.37904-1.6102" fill="#808080" opacity=".9972"/>
  <path d="m463.48 504.17 8.8324-4.3851c0.77834-0.38643 1.8812-0.35421 2.471 0.0727l6.7585 4.8926c0.58596 0.42419 0.42469 1.0706-0.35984 1.4488l-8.903 4.292c-0.76446 0.36855-1.8454 0.32983-2.4252-0.0862l-6.6879-4.7995c-0.58362-0.41884-0.4443-1.0587 0.31406-1.4352" fill="#808080" opacity=".9972"/>
  <path d="m406.45675,497.29052-10.24963,4.38737c-.64343.27543-.80149.79162-.35179,1.15638l7.45141,6.04417c.45176.36645 1.32111.42555 1.94666.13355l9.96425-4.65073c.58079-.27108.69682-.77069.2624-1.12112l-7.16597-5.78075c-.43252-.34891-1.25986-.42462-1.85733-.16887" fill="#808080" opacity=".9972"/>
  <path d="m494.79 527.94 10.252-4.9948c0.56646-0.27597 1.3979-0.23242 1.8665 0.0972l8.3182 5.8514c0.48002 0.33769 0.41963 0.84405-0.13766 1.1358l-10.091 5.2834c-0.59401 0.31102-1.4683 0.27647-1.9579-0.078l-8.4796-6.14c-0.47748-0.34575-0.37424-0.8611 0.22902-1.155" fill="#808080" opacity=".9972"/>
  <path d="m467.09579,481.15826-8.7739,3.87992c-.62996.27857-.69426.82457-.14287,1.22463l7.82623,5.67807c.56563.41035 1.53355.51101 2.16886.22525l8.8476-3.9796c.62737-.28218.6718-.83424.10092-1.23737l-7.89994-5.5784c-.55665-.39305-1.50467-.48766-2.12689-.2125" fill="#808080" opacity=".9972"/>
  <path d="m478.30707,489.13701-8.90212,3.8584c-.64493.27952-.72704.82071-.18194,1.21357l7.75399,5.58848c.56163.40476 1.53582.49593 2.18203.20419l8.91742-4.02571c.62659-.28287.67638-.82676.11376-1.21932l-7.76931-5.42116c-.54634-.38121-1.4882-.46964-2.11386-.19845" fill="#808080" opacity=".9972"/>
  <path d="m445.66919,465.77462-9.45245,4.02147c-.40278.17134-.43903.51902-.0804.78008l8.73357,6.35578c.38239.27829 1.02537.35869 1.44059.1797l9.74297-4.20023c.41112-.17723.4232-.53808.0281-.80849l-9.02405-6.17705c-.37071-.25374-.98953-.32099-1.38846-.15126" fill="#808080" opacity=".9972"/>
  <path d="m509.59666,543.16401-11.73543,5.98983c-.52175.26631-.63979.71083-.26431.99679l8.53342,6.49852c.38056.28981 1.10917.30624 1.63329.0368l11.78855-6.06094c.52031-.26752.63062-.71369.24771-1.00033l-8.58653-6.42742c-.37782-.28282-1.09873-.29761-1.6167-.0332" fill="#808080" opacity=".9972"/>
  <path d="m489.52133,496.65099-9.48782,4.3176c-.47815.2176-.54311.62746-.1443.91941l8.20378,6.00565c.41956.30715 1.15042.37153 1.63727.1439l9.65762-4.51508c.47624-.22263.51388-.64129.0858-.93823l-8.37363-5.80821c-.40718-.28242-1.1107-.33801-1.57869-.12504" fill="#808080" opacity=".9972"/>
  <path d="m550.91 569.83 10.485-5.647c0.60575-0.32626 1.7575-0.11203 2.5855 0.48143l14.505 10.395c0.87558 0.6275 1.0926 1.414 0.48309 1.7623l-10.555 6.0316c-0.6299 0.35993-1.8417 0.12456-2.7135-0.5265l-14.435-10.78c-0.82361-0.6151-0.98053-1.3805-0.35516-1.7173" fill="#808080" opacity=".9972"/>
  <path d="m568.36585,551.66954-10.82055,5.68321c-.35649.18723-.40271.51458-.10289.73384l9.46355,6.92134c.30816.2254.84126.24871 1.1945.0524l10.7182-5.95612c.33549-.18645.35971-.51068.055-.72711l-9.36122-6.64841c-.29666-.2107-.80774-.23712-1.14656-.0592" fill="#808080" opacity=".9972"/>
  <path d="m540.03 561.43 10.087-5.3373c0.73917-0.3911 1.7888-0.36663 2.3549 0.0548l7.7009 5.7331c0.57396 0.42731 0.44263 1.0927-0.29591 1.4921l-10.079 5.4505c-0.75359 0.4075-1.8241 0.38487-2.3987-0.0509l-7.709-5.8462c-0.56659-0.4297-0.41444-1.097 0.33969-1.496" fill="#808080" opacity=".9972"/>
  <path d="m509.46 557.17 10.616-5.4521c0.82247-0.42239 1.9644-0.39843 2.565 0.0528l7.6139 5.7208c0.61747 0.46392 0.4637 1.1964-0.34932 1.6434l-10.5 5.7723c-0.86749 0.47688-2.0749 0.46712-2.7021-0.023l-7.7299-6.0409c-0.60938-0.47623-0.39024-1.2229 0.48636-1.6731" fill="#808080" opacity=".9972"/>
  <path d="m531.15 574.35 11.157-5.8748c0.78565-0.41367 2.4019-0.0134 3.6285 0.89939l17.594 13.092c1.285 0.9562 1.6895 2.0819 0.90213 2.5219l-11.186 6.2515c-0.80921 0.45224-2.4979 0.0224-3.7812-0.96172l-17.564-13.469c-1.2241-0.93869-1.5563-2.0348-0.74949-2.4597" fill="#808080" opacity=".9972"/>
  <path d="m533.4104,527.60835-9.5693,4.97506c-.46672.24263-.51286.68835-.10208,1.00026l8.78348,6.66887c.44428.33731 1.19472.40478 1.68098.15019l9.96876-5.21906c.48343-.25312.49742-.71931.033-1.04425l-9.1829-6.42487c-.42956-.30054-1.14787-.3475-1.61199-.10624" fill="#808080" opacity=".9972"/>
  <path d="m503.29665,570.4852 10.06666-5.13175c.61041-.31116 1.47829-.25817 1.94764.11788l7.51467,6.0205c.46831.3752.36819.93646-.2262,1.25942l-9.80218,5.32604c-.62924.34191-1.52761.30626-2.01241-.081l-7.77917-6.21481c-.48591-.3882-.35526-.96679.29099-1.29624" fill="#808080" opacity=".9972"/>
  <path d="m499.81 589.61 7.5978 6.3232c0.77137 0.64195 2.1804 0.71089 3.1626 0.15012l10.136-5.7865c1.049-0.59888 1.2354-1.6148 0.41407-2.2731l-8.085-6.4799c-0.79821-0.63975-2.2471-0.65598-3.2452-0.0413l-9.6485 5.9433c-0.93557 0.57628-1.0819 1.5395-0.3314 2.1642" fill="#808080" opacity=".9972"/>
  <path d="m477.74 571.18 7.3593 6.2004c0.64733 0.54539 1.8782 0.58552 2.7592 0.0888l10.164-5.7299c0.88719-0.50017 1.0679-1.3392 0.40583-1.8802l-7.5268-6.1495c-0.64741-0.52896-1.8706-0.55485-2.7431-0.0592l-9.9961 5.679c-0.86652 0.49229-1.0549 1.3171-0.42184 1.8504" fill="#808080" opacity=".9972"/>
  <path d="m492.02342,561.56132 9.96678-5.02958c.59599-.30077 1.46902-.24211 1.95962.1323l8.35414,6.37544c.52055.39725.45059.97251-.15922,1.28895l-10.20185,5.29394c-.6245.32407-1.53659.25101-2.04271-.16289l-8.11906-6.63976c-.47661-.38977-.36757-.95065.2423-1.2584" fill="#808080" opacity=".9972"/>
  <path d="m545.36709,536.14085-9.7311,5.02882c-.55788.28833-.63732.78895-.1773,1.12271l8.16232,5.92188c.4708.34159 1.30321.37984 1.86556.0856l9.80797-5.13278c.55612-.29106.62057-.79566.14536-1.13121l-8.23919-5.81795c-.46438-.32793-1.28182-.36219-1.83362-.077" fill="#808080" opacity=".9972"/>
  <path d="m506.47 536.07 10.081-5.1636c0.71441-0.36594 1.7504-0.33465 2.3245 0.0706l8.1833 5.7767c0.5939 0.41923 0.49066 1.0604-0.23327 1.4371l-10.217 5.3157c-0.73416 0.38198-1.7969 0.3426-2.381-0.0878l-8.0472-5.9287c-0.56452-0.41592-0.43451-1.049 0.28978-1.42" fill="#808080" opacity=".9972"/>
  <path d="m517.98028,544.55021 9.83135-5.08054c.69949-.36148 1.7144-.33332 2.27817.0646l8.18231,5.77597c.60474.42689.50876,1.07637-.21805,1.45452l-10.21673,5.3157c-.73128.38047-1.7862.32765-2.36252-.11668l-7.797-6.01106c-.53713-.41412-.40113-1.03895.30247-1.40256" fill="#808080" opacity=".9972"/>
  <path d="m413.78276,517.54404-7.99026-6.62002c-.33338-.27619-.22932-.67159.23197-.88641l10.58881-4.93099c.4371-.20355 1.05476-.15444 1.38611.11005l7.93789,6.3354c.34197.27293.26832.66583-.16641.88101l-10.53642,5.21561c-.45924.22733-1.10731.18073-1.45169-.10462" fill="#808080" opacity=".9972"/>
  <path d="m435.14 468.9 9.2894-3.9649c0.40514-0.17291-0.0458-0.85485-1.0048-1.5252l-20.074-14.031c-0.82472-0.57644-1.7959-0.91799-2.1825-0.76882l-8.8528 3.416c-0.39783 0.15353-0.0734 0.75614 0.73237 1.3544l19.637 14.579c0.93935 0.69739 2.0371 1.1185 2.4551 0.94011" fill="#808080" opacity=".9972"/>
  <path d="m569.48 565.75 10.293-5.6786c0.50758-0.28005 1.3475-0.19525 1.8837 0.18988l10.766 7.7326c0.53732 0.38593 0.56648 0.92597 0.0649 1.2111l-10.171 5.781c-0.51272 0.29141-1.3634 0.21138-1.9067-0.17967l-10.887-7.835c-0.54223-0.39022-0.56066-0.93504-0.0419-1.2213" fill="#808080" opacity=".9972"/>
  <path d="m386.86 461.93 20.539-7.972c1.4074-0.54628 3.1926-0.52579 3.9807 0.0565l13.737 10.149c0.8251 0.60961 0.99349 1.1337-0.60636 1.579l-7.8096 3.1916c-1.2633 0.5163-1.2608 0.54303-2.3579-0.2564l-1.462-1.0654c-0.31969-0.23297-1.2778-0.32329-2.305 0.11931l-10.581 4.5588c-1.1669 0.32479-2.1805 0.42367-2.8392-0.0939l-11.008-8.6487c-0.63389-0.49805-0.32243-1.2168 0.71183-1.6182" fill="#808080"/>
  <path d="m438.90575,519.58107 9.80102-4.5178c.50423-.23242 1.22168-.17604 1.60983.12624l7.4577,5.8078c.39486.30753.31102.74945-.18921.99112l-9.72492,4.69803c-.52102.2517-1.26269.19922-1.66167-.1179l-7.53377-5.98804c-.39203-.3116-.28397-.75744.24102-.99945" fill="#808080" opacity=".9972"/>
  <path d="m483.26 519.16 9.509-4.6921c0.7085-0.3496 1.7827-0.27232 2.4086 0.17403l8.5297 6.083c0.63683 0.45415 0.56936 1.1019-0.15138 1.4515l-9.6728 4.6922c-0.71119 0.34497-1.7866 0.2565-2.4112-0.19764l-8.366-6.083c-0.61392-0.4464-0.54523-1.0829 0.15397-1.4279" fill="#808080" opacity=".9972"/>
  <path d="m487.69 527.46-10.351 5.0838c-0.83734 0.41123-1.0467 1.1064-0.46703 1.559l7.3594 5.7454c0.59763 0.46658 1.7607 0.50016 2.6052 0.075l10.438-5.2544c0.82523-0.41543 1.0009-1.1145 0.39637-1.5671l-7.446-5.5748c-0.58664-0.43922-1.716-0.46894-2.5346-0.0669" fill="#808080" opacity=".9972"/>
  <path d="m500.28827,504.54328-9.00371,4.13876c-.68699.31578-.82828.88172-.30924,1.26758l7.4883,5.56687c.55011.40898 1.53537.44725 2.20137.0875l8.70874-4.70459c.58005-.31336.61738-.85967.09-1.22623l-7.19366-5.00068c-.49973-.34739-1.38085-.40548-1.98189-.12919" fill="#808080" opacity=".9972"/>
  <path d="m395.56 485.44-20.668-16.697c-0.96566-0.78016-1.3789-1.5478-0.9308-1.7233l8.9416-3.5024c0.42215-0.16535 1.5255 0.30141 2.4779 1.0485l20.357 15.969c1.0294 0.80748 1.5341 1.6199 1.1272 1.8194l-8.6302 4.2314c-0.43303 0.21231-1.628-0.29927-2.6745-1.1448" fill="#808080" opacity=".9972"/>
  <path d="m443.56 489.17 8.25-3.9338c0.80118-0.38202 1.9529-0.32635 2.589 0.12491l6.5269 4.6297c0.6716 0.47639 0.57137 1.1926-0.23189 1.6058l-8.2802 4.2595c-0.85608 0.44038-2.0902 0.38393-2.7594-0.12652l-6.4965-4.9554c-0.63253-0.48248-0.44993-1.1979 0.4021-1.6042" fill="#808080" opacity=".9972"/>
  <path d="m459.6787,535.77937 9.40256-4.54266c.69301-.3348 1.7122-.24448 2.28612.20282l7.82044,6.09509c.58381.45501.49337,1.09565-.20374,1.43611l-9.45861,4.6196c-.70308.34338-1.73655.24865-2.31619-.21213l-7.76437-6.17199c-.56983-.45294-.4651-1.08917.23379-1.42684" fill="#808080" opacity=".9972"/>
  <path d="m463.94 524.14-6.7466-5.2018c-0.53442-0.41208-0.29858-1.0653 0.52741-1.4648l10.259-4.9622c0.81505-0.39422 1.9044-0.38623 2.4438 0.018l6.8094 5.1035c0.54981 0.41206 0.33349 1.0676-0.48648 1.4696l-10.322 5.0605c-0.83113 0.40747-1.94 0.3972-2.4847-0.0228" fill="#808080" opacity=".9972"/>
  <path d="m453.82 516.3-6.8715-5.4447c-0.66382-0.526-0.42704-1.3087 0.52501-1.7571l9.3831-4.4188c0.92743-0.43676 2.2278-0.38872 2.9215 0.10959l7.1766 5.1552c0.74466 0.5349 0.57898 1.3417-0.37805 1.8068l-9.6882 4.7084c-0.98359 0.47801-2.3551 0.40588-3.0685-0.1594" fill="#808080" opacity=".9972"/>
  <path d="m429.91046,511.66636 8.80377-4.10444c.65524-.30548 1.56413-.25355 2.03921.11807l6.62389,5.18158c.50602.3958.36442.96907-.31897,1.28351l-9.18002,4.22385c-.67558.31084-1.60474.23368-2.0819-.17118l-6.24771-5.30099c-.44819-.38027-.2863-.92829.36173-1.2304" fill="#808080" opacity=".9972"/>
  <path d="m419.99 503.61 8.5677-3.8584c0.67242-0.30282 1.6529-0.20509 2.2008 0.21899l6.9276 5.3615c0.56024 0.43357 0.47483 1.0374-0.19395 1.354l-8.5241 4.0349c-0.69492 0.32896-1.7105 0.2333-2.2744-0.21466l-6.9713-5.538c-0.55126-0.43793-0.43075-1.0438 0.26756-1.3583" fill="#808080" opacity=".9972"/>
  <path d="m443.36969,508.1051-6.71139-5.22209c-.6636-.51635-.38486-1.28244.61615-1.71552l9.56308-4.13742c.9164-.39648 2.16514-.32559 2.80755.15707l6.49275,4.87802c.65809.49443.47372,1.23629-.42111,1.66541l-9.3444,4.48136c-.9788.46939-2.32192.42284-3.00263-.10682" fill="#808080" opacity=".9972"/>
  <path d="m473.82 531.71-6.8611-5.2902c-0.50296-0.38778-0.28095-1.0026 0.49649-1.3786l10.433-5.0465c0.76702-0.37102 1.7922-0.3635 2.2999 0.017l6.9251 5.1902c0.51752 0.38788 0.31395 1.0048-0.45772 1.3832l-10.497 5.1465c-0.78227 0.38353-1.8259 0.37389-2.3387-0.0215" fill="#808080" opacity=".9972"/>
  <path d="m449.11 527.14 9.0681-4.3414c0.71746-0.34349 1.7743-0.24732 2.3714 0.21577l7.5442 5.8506c0.60969 0.47281 0.52352 1.1384-0.19507 1.4923l-9.0835 4.4731c-0.73449 0.36171-1.8172 0.26351-2.4258-0.22004l-7.5287-5.9823c-0.59583-0.47346-0.48375-1.1371 0.24937-1.4881" fill="#808080" opacity=".9972"/>
  <path d="m473.54 511.31 8.7285-4.2254c0.85898-0.41581 2.0733-0.36674 2.726 0.10948l6.5676 4.792c0.66277 0.48358 0.51231 1.2188-0.34068 1.649l-8.6688 4.3724c-0.88359 0.44567-2.1362 0.40366-2.8052-0.0949l-6.6272-4.939c-0.6585-0.49075-0.46972-1.233 0.41977-1.6636" fill="#808080" opacity=".9972"/>
  <path d="m416.9063,489.24876-6.87527-5.34679c-.67951-.52844-1.83095-.65917-2.58408-.29383l-7.57588,3.67511c-.76425.37074-.83942,1.10284-.16614,1.64214l6.81325,5.45747c.69145.55387 1.87051.69286 2.64113.31089l7.6379-3.78577c.75919-.37632.80676-1.11665.10913-1.65922" fill="#808080" opacity=".9972"/>
  <path d="m425.51 475.77 8.0446-3.6564c0.81213-0.36914 1.9078-0.34422 2.4567 0.0573l5.563 4.0692c0.56535 0.41354 0.35033 1.047-0.48238 1.4187l-8.247 3.6818c-0.81913 0.3657-1.9173 0.32396-2.462-0.0921l-5.3605-4.0946c-0.52907-0.4041-0.31147-1.0207 0.48767-1.384" fill="#808080" opacity=".9972"/>
  <path d="m405.37556,478.66412-5.04257-3.92579c-.50012-.38938-.14311-1.01932.79567-1.4113l9.1336-3.81372c.89124-.37214 2.00348-.37091 2.49824.002l4.98692,3.75598c.50408.37964.20064.99727-.68491,1.38586l-9.07795,3.9835c-.93333.40957-2.09915.42065-2.609.0237" fill="#808080" opacity=".9972"/>
  <path d="m413.79 485.16-5.4648-4.1945c-0.54497-0.41829-0.24462-1.0684 0.67374-1.4582l9.2114-3.9101c0.92659-0.39335 2.1178-0.37349 2.6707 0.0451l5.5435 4.1974c0.55748 0.42209 0.25371 1.0788-0.68081 1.4719l-9.2901 3.9072c-0.9262 0.38952-2.114 0.36304-2.6636-0.0587" fill="#808080" opacity=".9972"/>
  <path d="m418.43686,470.15106 8.15339-3.2318c.76376-.30272 1.72299-.28961 2.16017.0272l4.44989,3.22484c.45428.3292.22744.86335-.51807,1.20021l-7.97184,3.60206c-.85525.38643-1.93448.40418-2.40806.0365l-4.63118-3.59547c-.45423-.35265-.10762-.91744.7657-1.26356" fill="#808080" opacity=".9972"/>
  <path d="m434.13 482.2 8.1953-3.7152c0.79611-0.36091 1.9125-0.31513 2.508 0.10161l6.0127 4.208c0.60885 0.42612 0.47149 1.0756-0.31298 1.4575l-8.0786 3.9323c-0.83442 0.40615-2.0105 0.37324-2.6314-0.075l-6.1293-4.4252c-0.60679-0.43809-0.40972-1.1005 0.43638-1.484" fill="#808080" opacity=".9972"/>
  <path d="m410.31 495.67 7.6903-3.764c0.78193-0.38271 1.9392-0.28506 2.5944 0.22116l6.6409 5.1306c0.67505 0.52151 0.56667 1.249-0.24256 1.6289l-7.9565 3.7354c-0.78456 0.36831-1.9374 0.24571-2.5852-0.27274l-6.3747-5.102c-0.62912-0.50354-0.52525-1.2061 0.23326-1.5774" fill="#808080" opacity=".9972"/>
  <path d="m433.19 500.15-6.3091-4.8469c-0.62642-0.48123-0.35871-1.1999 0.59702-1.6109l9.403-4.0443c0.92782-0.39906 2.1753-0.34309 2.8 0.12516l6.2918 4.7155c0.63542 0.47622 0.40406 1.191-0.52188 1.603l-9.3858 4.1757c-0.9541 0.42449-2.2379 0.37238-2.8752-0.11719" fill="#808080" opacity=".9972"/>
  <path d="m423.5 492.66-6.4401-4.9779c-0.63778-0.49298-0.38511-1.2093 0.56297-1.6061l9.324-3.9018c0.91964-0.38485 2.1712-0.30936 2.8097 0.16914l6.4453 4.8305c0.65256 0.48908 0.44009 1.2042-0.47988 1.6035l-9.3293 4.0491c-0.94881 0.41181-2.2406 0.33759-2.8928-0.16649" fill="#808080" opacity=".9972"/>
  <g transform="matrix(-1.1824 0 0 1.1824 750.03 227.19)" fill="#4d4d4d">
   <path d="m200.53013,313.0503-7.49555,6.32117c-.37973.32023-1.02008.38715-1.43523.14965l-8.31265-4.75554c-.41378-.23672-.43531-.68149-.0488-.99687l7.62889-6.22559c.37437-.30551 1.00311-.36442 1.41026-.13246l8.17931,4.65995c.40847.23272.44164.66949.0738.97969" opacity=".9972"/>
   <path d="m172.42 306.04 15.61-11.95c1.0902-0.83462 2.3913-1.2656 2.925-0.97211l7.2384 3.981c0.53782 0.2958 0.12431 1.2202-0.93486 2.0785l-15.17 12.293c-1.1905 0.96474-2.6159 1.4884-3.1866 1.1671l-7.6793-4.3235c-0.56606-0.3187-0.0281-1.3356 1.1966-2.2732" opacity=".9972"/>
   <path d="m183.72 293.09-8.4971-4.4742c-0.59833-0.31506-1.8292-0.0102-2.7634 0.68496l-13.399 9.9709c-0.97864 0.72825-1.2867 1.5856-0.68705 1.9207l8.5195 4.7611c0.61628 0.34441 1.9024 0.017 2.8797-0.73243l13.377-10.258c0.93228-0.71489 1.1852-1.5497 0.5708-1.8732" opacity=".9972"/>
   <path d="m166.83 289.13-7.6963-4.1451c-0.44463-0.23948-1.29-0.0822-1.8979 0.35339l-10.647 7.6307c-0.64271 0.46062-0.802 1.038-0.35461 1.2936l7.748 4.4274c0.46238 0.26421 1.3519 0.0914 1.9918-0.38647l10.596-7.913c0.60457-0.4515 0.71975-1.0133 0.2607-1.2606" opacity=".9972"/>
   <path d="m151.36095,285.65566-7.51206-4.14458c-.37047-.2044-.98348-.14252-1.37484.13858l-7.8573,5.64369c-.39216.28168-.41344.67583-.0473.88391l7.42359,4.21927c.37421.21268.99504.15428 1.39162-.13113l7.94579-5.71839c.39575-.28481.4092-.68244.0305-.89135" opacity=".9972"/>
   <path d="m210.7 305.78-5.7721 4.8037c-0.58601 0.4877-1.6564 0.54005-2.4026 0.11404l-7.7-4.396c-0.79691-0.45497-0.93851-1.2268-0.31457-1.7269l6.1422-4.9228c0.60641-0.48602 1.7072-0.49835 2.4654-0.0313l7.33 4.5151c0.71075 0.43782 0.82194 1.1696 0.25176 1.6441" opacity=".9972"/>
   <path d="m220.36679,297.64972-6.16858,5.18721c-.39111.32888-1.13531.32939-1.66492.002l-8.05903-4.97557c-.47744-.29476-.55548-.77623-.17816-1.08059l5.95664-4.80487c.36603-.29525 1.05301-.31445 1.54346-.0421l8.27103,4.59337c.54303.30158.67826.80166.29956,1.12012" opacity=".9972"/>
   <path d="m229.28 290.15-5.5074 4.6401c-0.48443 0.40815-1.4055 0.43818-2.0648 0.0665l-7.6059-4.288c-0.66393-0.3743-0.79918-1.0022-0.3037-1.407l5.6327-4.602c0.48451-0.39585 1.3999-0.41523 2.0528-0.0443l7.4806 4.2499c0.64845 0.3684 0.78943 0.98564 0.31567 1.3848" opacity=".9972"/>
   <path d="m207.6366,289.76045-7.43207-3.7887c-.45065-.22973-1.09138-.1906-1.43791.087l-5.54795,4.44484c-.34575.277-.27182.69137.167.92981l7.23679,3.93213c.46457.25242 1.12782.2261 1.48573-.0598l5.74325-4.58829c.35874-.2866.26228-.71377-.21484-.95699" opacity=".9972"/>
   <path d="m193.30538,285.7839-8.08486-4.30808c-.63757-.33973-1.51491-.3384-1.96928.003l-5.76563,4.33203c-.468.35163-.33045.91785.31062,1.26956l8.13122,4.46106c.65975.36196 1.56651.36018 2.03086-.004l5.71925-4.48501c.4506-.35336.28364-.91915-.37218-1.26861" opacity=".9972"/>
   <path d="m153.65825,274.40909 8.09972,4.25417c.26685.14015.30146.38518.077.54931l-7.08394,5.18096c-.23068.16871-.62972.18617-.89413.0392l-8.02311-4.45845c-.25114-.13956-.26926-.38227-.0412-.54426l7.00733-4.97667c.22207-.15772.60463-.1775.85826-.0443" opacity=".9972"/>
   <path d="m176.68036,282.15173-7.59262-4.01735c-.55638-.29439-1.34646-.27597-1.77252.0412l-5.79644,4.31525c-.43203.32163-.33316.8225.22272,1.12311l7.58651,4.10253c.56722.30674 1.37296.2897 1.80549-.0383l5.80254-4.40044c.42648-.32342.31195-.82567-.25568-1.12601" opacity=".9972"/>
   <path d="m186.05575,275.08382-7.38738-3.81758c-.52562-.27162-1.28821-.25045-1.71183.0486l-6.14827,4.34012c-.45441.32077-.38232.80878.16383,1.09295l7.67697,3.99426c.54948.28589 1.34216.2462 1.77522-.0877l5.85873-4.51678c.40361-.31117.30142-.78067-.22727-1.05388" opacity=".9972"/>
   <path d="m163.51597,267.87954 7.64863,4.03942c.37144.19617.42191.53244.1128.75428l-6.45606,4.63328c-.31899.22892-.88089.25306-1.25949.0538l-7.79611-4.10329c-.37979-.19989-.42253-.54283-.0962-.76861l6.60354-4.56941c.31617-.21877.87034-.23625 1.24294-.0395" opacity=".9972"/>
   <path d="m173.08132,261.26965 7.33901,3.79266c.42075.21744.48067.595.13372.84671l-6.15586,4.46618c-.35507.25761-.98286.28646-1.40697.0645l-7.39699-3.87106c-.41941-.21949-.46802-.60006-.10963-.85313l6.21384-4.38778c.35024-.24731.96673-.27315 1.38288-.0581" opacity=".9972"/>
   <path d="m183.15808,254.05968 7.38302,3.83841c.36009.18721.3957.53108.0787.77174l-6.77675,5.14525c-.34277.26026-.92176.31231-1.29693.11589l-7.69123-4.02669c-.373-.19528-.38379-.55496-.0255-.80566l7.08491-4.95701c.33143-.23188.88562-.26811 1.24372-.0819" opacity=".9972"/>
   <path d="m195.50846,268.00414-7.58609-3.92027c-.53974-.27892-1.32287-.2572-1.75788.0499l-6.31366,4.45687c-.46664.3294-.39258.83056.16824,1.12235l7.88347,4.10171c.56426.29358 1.37827.25282 1.82298-.09l6.01633-4.63828c.41447-.31954.30952-.80167-.23339-1.08223" opacity=".9972"/>
   <path d="m202.55006,278.55525-8.02953-4.12368c-.62206-.31947-1.48579-.30134-1.94002.0399l-5.75873,4.32684c-.46701.3509-.35072.90491.26422,1.24295l7.94175,4.3658c.65611.36068 1.56931.3533 2.04369-.0174l5.84646-4.56901c.4609-.36019.29516-.92493-.36784-1.26542" opacity=".9972"/>
   <path d="m217.28268,282.30723-7.5147-3.79217c-.44937-.22677-1.1076-.18254-1.47749.0997l-6.29881,4.80692c-.39248.29953-.33974.73325.12005.97184l7.69192,3.99149c.47086.24434 1.15856.18926 1.54015-.12281l6.12156-5.00621c.35935-.29387.27714-.71676-.18268-.9488" opacity=".9972"/>
   <path d="m223.63 280.97 47.572-38.162c0.56801-0.45177 1.7401-0.46114 2.6309-0.0214l6.3279 3.1045c0.90416 0.44636 1.1834 1.178 0.62315 1.6409l-46.853 39.255c-0.69701 0.5759-2.0362 0.60505-2.999 0.0648l-6.8694-3.9098c-0.94682-0.53132-1.1385-1.411-0.43339-1.9719"/>
   <path d="m227.03565,274.61509-7.46406-3.71966c-.43317-.21586-1.08221-.15811-1.45649.12978l-6.50206,5.00132c-.38923.2994-.35111.72157.0868.94626l7.54753,3.87275c.44828.23002 1.11965.16646 1.50398-.14218l6.41856-5.15441c.36938-.29663.30895-.71299-.13426-.93386" opacity=".9972"/>
   <path d="m192.51964,247.35677 7.26361,3.95958c.30048.1638.32193.45036.0487.6428l-6.43595,4.53253c-.2726.19198-.73911.21926-1.0466.0609l-7.43262-3.82815c-.32311-.16641-.35852-.45965-.0788-.65719l6.60497-4.66397c.28044-.19802.76091-.21862 1.07668-.0465" opacity=".9972"/>
   <path d="m204.95758,260.67876-7.5067-3.84519c-.532-.2725-1.30344-.24921-1.73099.0526l-6.09383,4.30169c-.44225.31219-.36539.78966.17371,1.07015l7.60803,3.9584c.54671.28444 1.3381.25512 1.77307-.0653l5.99249-4.4149c.42039-.30972.32357-.78115-.21578-1.05742" opacity=".9972"/>
   <path d="m203.42735,267.20908 8.80595,4.49461c.3915.19982.48008.53339.19833.74795l-6.40324,4.87632c-.28557.21747-.8323.2298-1.22559.0276l-8.8458-4.54797c-.39042-.20073-.47321-.53554-.18587-.75062l6.44309-4.82295c.28351-.21223.82446-.22332 1.21313-.0249" opacity=".9972"/>
   <path d="m212.72962,260.6903 8.08894,4.02762c.58866.29311.74495.77441.34834,1.07905l-5.64678,4.3373c-.40937.31444-1.21578.32122-1.80592.0153l-8.10633-4.20184c-.56702-.29391-.69134-.77331-.28086-1.075l5.6642-4.16309c.39798-.29251 1.17241-.3012 1.73841-.0194" opacity=".9972"/>
   <path d="m235.38208,267.94652-7.02013-3.4035c-.60385-.29275-1.4444-.25454-1.88603.0855l-5.10899,3.93413c-.44721.34437-.32337.86269.27906,1.16234l7.00419,3.48388c.61619.30648 1.47458.27045 1.92322-.081l5.12493-4.01451c.44296-.34698.30128-.86749-.31625-1.16688" opacity=".9972"/>
   <path d="m202.3439,240.55011 7.06295,3.80639c.37281.20091.39.56279.0383.81139l-6.72677,4.75447c-.35452.25058-.93989.2886-1.31219.0853l-7.05327-3.8526c-.36824-.20115-.37946-.56284-.0255-.81098l6.71708-4.70826c.35122-.24619.93061-.28439 1.29937-.0857" opacity=".9972"/>
   <path d="m214.95641,253.88523-7.74776-3.77459c-.42807-.20855-1.05642-.17563-1.41054.0735l-6.28601,4.42194c-.36275.25518-.31711.63783.10404.85833l7.62575,3.99264c.4489.23503 1.10964.20893 1.47959-.0589l6.408-4.64002c.36083-.26128.28281-.65073-.17307-.87283" opacity=".9972"/>
   <path d="m221.9033,253.92205 7.84277,3.85171c.6344.31157.79305.83827.35384,1.18116l-5.57582,4.35301c-.4528.35349-1.33399.37895-1.97384.0569l-7.90838-3.98095c-.62524-.31474-.75835-.84437-.30032-1.1873l5.64145-4.22377c.44447-.33277 1.30012-.3553 1.9203-.0507" opacity=".9972"/>
   <path d="m244.75785,260.58731-7.17065-3.46436c-.52851-.25534-1.30576-.18645-1.74346.15468l-5.96408,4.64828c-.44522.34699-.37626.83557.15538,1.09522l7.21339,3.52302c.5362.26188 1.32435.18963 1.7664-.16177l5.92133-4.70694c.43454-.34542.35468-.83062-.17831-1.08813" opacity=".9972"/>
   <path d="m233.2943,256.416 5.16134-3.97954c.37834-.29172.21133-.75422-.37351-1.0371l-7.84835-3.79624c-.577-.2791-1.34821-.27345-1.73011.0128l-5.20943,3.90433c-.38931.29177-.23617.75588.34432,1.04048l7.89644,3.87146c.58848.28851 1.37356.28125 1.7593-.0162" opacity=".9972"/>
   <path d="m224.84883,246.55597-7.32149-3.61274c-.54551-.26918-1.37259-.20968-1.85451.134l-6.5675,4.6836c-.49034.34968-.43839.8484.11655,1.1176l7.4476,3.61281c.54759.26563 1.3756.1975 1.8565-.15217l6.4414-4.68366c.4727-.34371.41979-.8338-.11855-1.09944" opacity=".9972"/>
   <path d="m211.2176,234.55068 6.92164,3.1817c.52813.24277.63674.67783.23773.97446l-5.75666,4.27956c-.42291.3144-1.18034.34382-1.69231.0673l-6.69489-3.61668c-.44594-.2409-.47463-.66088-.0693-.94267l5.53015-3.8443c.38417-.26706 1.06154-.31171 1.5236-.0993" opacity=".9972"/>
   <path d="m233.15615,239.94299-6.71194-3.2492c-.66052-.31976-1.59432-.28202-2.09621.0842l-5.05027,3.68489c-.50966.37186-.39395.93719.26195,1.26802l6.66608,3.36224c.67945.3427 1.6427.3104 2.15707-.0729l5.09613-3.79794c.50635-.37736.36119-.94812-.32281-1.27925" opacity=".9972"/>
   <path d="m220.30432,227.87754 7.16054,3.25854c.36087.16422.40989.47355.10892.69388l-6.19149,4.53254c-.31664.23179-.86822.28038-1.23566.1086l-7.2887-3.40757c-.35942-.16803-.38782-.484-.0647-.7081l6.31966-4.38351c.3073-.21315.83826-.25511 1.19146-.0944" opacity=".9972"/>
   <path d="m253.8328,253.35343-7.02575-3.36361c-.55587-.26612-1.37469-.19162-1.83734.16717l-5.84504,4.53291c-.47236.36632-.4056.88205.15114,1.15621l7.03772,3.46569c.56905.28023 1.40795.20415 1.87941-.17048l5.83307-4.63499c.46164-.36682.37481-.88097-.19321-1.1529" opacity=".9972"/>
   <path d="m241.69245,250.18836 5.16996-3.98619c.40954-.31577.22881-.81636-.40415-1.12252l-7.86147-3.80259c-.62457-.3021-1.45932-.29598-1.87271.0138l-5.21813,3.91085c-.42133.31577-.25556.8181.37279,1.12616l7.90965,3.87793c.63688.31225 1.4866.30439 1.90406-.0175" opacity=".9972"/>
   <path d="m262.29906,246.8676-7.41738-3.41907c-.3816-.1759-.92456-.13323-1.21832.0955l-5.64396,4.39534c-.29883.23272-.23537.56717.1432.75006l7.35979,3.55546c.39431.19049.9556.15077 1.25754-.0892l5.70153-4.53173c.2967-.23582.21492-.57323-.1824-.75637" opacity=".9972"/>
   <path d="m269.92313,240.18072-6.6117-3.08246c-.4921-.22942-1.17467-.19042-1.53146.0887l-4.9746,3.89139c-.38001.29727-.27368.72778.23956.96393l6.89426,3.17215c.50736.23344 1.20517.17549 1.56352-.12856l4.69208-3.98108c.3366-.28559.21501-.69716-.27166-.92405" opacity=".9972"/>
   <path d="m284.15897,244.25926 5.93078-4.91372c.24745-.20501.17021-.49849-.17219-.65794l-7.85955-3.66002c-.32444-.15109-.7829-.11464-1.02884.0817l-5.89192,4.70244c-.25383.20259-.19915.49421.12353.65393l7.82067,3.87129c.34087.16874.82189.13415 1.07752-.0776" opacity=".9972"/>
   <path d="m290.6347,228.41799 7.84207,3.35681c.49227.21072.61321.60566.26913.88475l-5.70111,4.62442c-.34564.28037-1.0108.32559-1.48941.1022l-7.62372-3.55831c-.44436-.20741-.53313-.58966-.20075-.85779l5.48272-4.42288c.33093-.26696.96393-.32488 1.42107-.1292" opacity=".9972"/>
   <path d="m301.86982,230.05516 4.85673-4.04441c.48218-.40154.34597-.96669-.30754-1.26902l-6.7014-3.1002c-.6892-.31885-1.65308-.24582-2.15883.16575l-5.09559,4.1467c-.51488.419-.35262,1.00622.36135,1.31462l6.9402,2.99792c.67661.29228 1.61448.19718 2.10508-.21136" opacity=".9972"/>
   <path d="m229.75901,221.51708 6.54464,2.83662c.47414.20551.53451.60338.13375.8922l-5.70055,4.10853c-.4129.29758-1.1291.36459-1.60418.15012l-6.5559-2.95962c-.46065-.20796-.49725-.60782-.0837-.89641l5.71182-3.98553c.40165-.28026 1.09409-.34527 1.55407-.14591" opacity=".9972"/>
   <path d="m241.4331,233.77444-6.56608-3.25991c-.57862-.28728-1.3985-.26333-1.83698.0541l-5.02433,3.63717c-.43561.31534-.31571.79587.2675,1.07704l6.61856,3.19072c.56831.27397 1.37187.2452 1.80295-.0642l4.97185-3.56797c.43388-.31137.3303-.78707-.23347-1.06697" opacity=".9972"/>
   <path d="m250.22 243.4 5.1744-4.1c0.49988-0.39609 0.32157-0.98552-0.39536-1.3232l-7.0658-3.3275c-0.69839-0.32889-1.6776-0.29272-2.2 0.0825l-5.4042 3.882c-0.56074 0.40281-0.43599 1.0104 0.28468 1.3606l7.2955 3.5456c0.74068 0.35997 1.7734 0.30564 2.3107-0.12003" opacity=".9972"/>
   <path d="m259.03235,236.38432 4.96998-3.86712c.49142-.38237.28501-.94969-.45628-1.2704l-7.08175-3.06388c-.67862-.2936-1.60333-.24111-2.07906.11631l-4.80808,3.61233c-.48734.36614-.35081.9155.31184,1.23329l6.91981,3.31857c.72483.3476 1.71945.31312 2.22354-.0791" opacity=".9972"/>
   <path d="m249.92718,227.47874-6.34875-3.21511c-.63682-.3225-1.54492-.2967-2.03772.0592l-5.03318,3.63538c-.51557.37239-.40399.93976.25192,1.27064l6.53872,3.29853c.65371.32977 1.58073.28738 2.07682-.0935l4.84322-3.7188c.47422-.36412.34372-.91491-.29103-1.23636" opacity=".9972"/>
   <path d="m278.37779,233.42877-6.51151-2.93244c-.51103-.23014-1.25619-.15586-1.67265.16645l-5.26502,4.07476c-.42578.32952-.36089.78842.14741,1.02903l6.47833,3.06658c.52816.25 1.30001.17729 1.72858-.16317l5.29819-4.20891c.41897-.33283.3274-.79329-.20333-1.0323" opacity=".9972"/>
   <path d="m286.64967,226.73945-5.89498-2.88532c-.59939-.29337-1.48653-.21851-1.98879.16953l-5.09062,3.93289c-.51745.39976-.43437.95745.18595,1.24867l6.09907,2.86333c.60141.28235 1.4851.18836 1.98166-.20906l4.88651-3.91093c.48227-.38598.40264-.92452-.1788-1.20911" opacity=".9972"/>
   <path d="m267.6823,229.91307 4.78678-3.67741c.47526-.36512.27216-.91036-.45297-1.22224l-7.13418-3.06846c-.70394-.30277-1.65039-.2603-2.12443.095l-4.77369,3.57769c-.4821.36131-.30657.90362.39597,1.21618l7.12108,3.16818c.72391.32207 1.69794.28252 2.18144-.0889" opacity=".9972"/>
   <path d="m258.51488,221.22986-6.32451-3.0157c-.61419-.29286-1.4971-.25019-1.9848.0958l-5.00353,3.54919c-.51485.36521-.43801.91426.17777,1.23103l6.34766,3.26534c.65628.3376 1.6024.29433 2.11541-.097l4.98024-3.79884c.48491-.36988.34494-.91833-.30824-1.22979" opacity=".9972"/>
   <path d="m239.22906,214.77058 6.53042,2.88781c.46888.20735.51676.61375.10635.91151l-5.82509,4.22618c-.42099.30545-1.14141.38036-1.61428.16766l-6.58528-2.962c-.46697-.21005-.50002-.62093-.0751-.92098l5.87994-4.15202c.41432-.29255 1.11992-.36297 1.58304-.15816" opacity=".9972"/>
   <path d="m247.90724,208.64597 6.63035,2.86034c.47877.20654.55859.59417.17803.86906l-5.36744,3.87709c-.38547.27844-1.08057.33188-1.55757.11989l-6.60523-2.93546c-.46575-.20698-.5311-.59335-.14747-.86637l5.34233-3.80195c.37881-.26959 1.05944-.3243 1.527-.1226" opacity=".9972"/>
   <path d="m266.53609,215.35847-6.29359-2.85308c-.61139-.27716-1.46869-.242-1.92602.0781l-4.61749,3.23159c-.46757.32724-.36209.82606.24034,1.1193l6.20402,3.01983c.6408.31191 1.54397.28664 2.02081-.0576l4.70705-3.39838c.46599-.33644.31465-.84513-.33512-1.13969" opacity=".9972"/>
   <path d="m275.86123,223.49708 4.83474-3.73705c.4788-.3701.28912-.90789-.42263-1.20574l-6.99984-2.92918c-.69041-.28891-1.63003-.23224-2.10932.12697l-4.83866,3.62645c-.48989.36716-.33039.904.36026,1.20376l7.00376,3.03979c.7123.30915 1.6821.25344 2.17169-.125" opacity=".9972"/>
   <path d="m282.59083,221.04513 5.1282-3.98814c.50684-.39414 1.36569-.49167 1.92744-.21916l5.65078,2.74124c.57006.27654.62613.82259.12393,1.22486l-5.08194,4.07068c-.51575.41312-1.3952.51679-1.97.23189l-5.69703-2.82379c-.56629-.28068-.60176-.83289-.0814-1.23758" opacity=".9972"/>
   <path d="m273.82385,209.9072-6.14643-2.7937c-.62051-.28204-1.45759-.26299-1.87704.0438l-4.25035,3.10908c-.43196.31597-.26765.79993.36856,1.08396l6.3011,2.81303c.62585.2794 1.46489.24751 1.88106-.0704l4.0957-3.1284c.40424-.30877.23798-.77989-.3726-1.05742" opacity=".9972"/>
   <path d="m257.3726,201.76885 7.26942,3.09272c.30975.13178.33763.39916.0618.59992l-6.71655,4.88792c-.29408.21402-.78857.27586-1.10789.1382l-7.49285-3.23019c-.31617-.1363-.32545-.41381-.0216-.62178l6.93996-4.75046c.28509-.19515.76099-.24686 1.06778-.11633" opacity=".9972"/>
   <path d="m284.0905,217.40082 4.19471-3.21966c.41832-.32108.18777-.82011-.51715-1.11934l-7.07061-3.00137c-.71125-.30191-1.62564-.28666-2.04997.0346l-4.25512,3.22188c-.42793.32401-.19475.82811.52259,1.12981l7.13101,2.99915c.71093.299 1.6227.27868 2.04454-.0451" opacity=".9972"/>
   <path d="m300.1 217.07 16.217-13.102c0.7577-0.61215 1.0819-1.2145 0.73036-1.3522l-7.016-2.7481c-0.33123-0.12974-1.1969 0.23651-1.9442 0.82272l-15.973 12.53c-0.80768 0.63358-1.2037 1.271-0.88443 1.4276l6.7717 3.3201c0.33979 0.1666 1.2774-0.23483 2.0985-0.89822" opacity=".9972"/>
   <path d="m291.15172,211.81971 3.80612-2.96319c.37751-.29391.10804-.76938-.60056-1.06525l-6.89406-2.87861c-.67272-.28089-1.51222-.27996-1.88569.001l-3.76412,2.83502c-.38048.28656-.15144.75275.51697,1.04605l6.85205,3.00676c.70449.30914 1.58445.31751 1.96929.0179" opacity=".9972"/>
   <path d="m279.78845,205.15721-6.13922-2.43341c-.57508-.22795-1.29735-.21808-1.62652.0205l-3.35061,2.42819c-.34206.24788-.17126.65007.39007.90371l6.00253,2.71222c.64397.29098 1.45659.30435 1.81318.0275l3.48712-2.70727c.34201-.26552.081-.69079-.57655-.95142" opacity=".9972"/>
   <path d="m266.63729,203.4528-7.41292-3.16393c-.3233-.13799.0366-.68217.80186-1.21708l16.01892-11.19639c.65813-.46 1.43311-.73254 1.7416-.61351l7.06451,2.72593c.31746.1225.0586.60337-.58442,1.08075l-15.6704,11.63404c-.7496.55651-1.62561.89255-1.95915.75019" opacity=".9972"/>
   <path d="m306.08894,198.05464-16.22411-6.2971c-1.11174-.43151-2.52189-.41532-3.1444.0446l-10.85058,8.017c-.65174.48155-.78476.89553.47896,1.24728l6.16881,2.52108c.99792.40783.99594.42894 1.86252-.20253l1.15484-.84153c.25252-.18401 1.0093-.25536 1.82071.0942l8.35783,3.601c.92172.25655 1.72241.33465 2.24273-.0742l8.69497-6.83165c.50071-.39341.25469-.96117-.56228-1.27826"/>
  </g>
  <path d="m516.54 595c-2.5126 1.5519-2.1801 2.6604 0.6651 5.2099 2.8684 2.5704-0.84985-1.1454-1.6258-2.3278-0.81015-1.2345 3.4301-4.4073 0.9607-2.8821z" fill="#fff" fill-rule="evenodd"/>
  <path d="m493.04 576.48c-2.5126 1.5519-3.0299 2.3278-0.18475 4.8774 2.8683 2.5703-0.55425-1.1085-1.478-2.3648-0.8985-1.222 4.1321-4.0378 1.6628-2.5126z" fill="#fff" fill-rule="evenodd"/>
  <path d="m504.27 585.91c-2.5126 1.5519-3.1777 2.1061-0.33255 4.6557 2.8684 2.5703-0.70205-1.4041-1.2563-2.1431-0.65204-0.86939 4.0582-4.0378 1.5888-2.5126z" fill="#fff" fill-rule="evenodd"/>
  <path d="m482.25 567.58c-2.5126 1.5519-3.1777 2.1062-0.33255 4.6557 2.8684 2.5703-1.4041-0.99766-1.1454-2.4018s3.9474-3.7791 1.478-2.254z" fill="#fff" fill-rule="evenodd"/>
  <path d="m507.69 568.61c-2.4694 1.5252-2.919 2.0507 0.0185 4.5079 2.9503 2.4679-1.2183-1.7259-1.515-2.2909-0.28912-0.55056 3.9658-3.7422 1.4965-2.217z" fill="#fff" fill-rule="evenodd"/>
  <path d="m524.45 563.92c-2.9929 1.6628-3.4047 2.2105-0.33256 4.6557 3.0901 2.4595-1.2563-1.2933-1.2563-2.4387 0-1.1824 4.5662-3.8711 1.5888-2.217z" fill="#fff" fill-rule="evenodd"/>
  <path d="m545.07 559.45c-2.6604 1.4041-3.4733 2.254-0.33255 4.6557s-1.5888-1.2932-1.3302-2.4018c0.27504-1.1787 4.2973-3.6444 1.6628-2.254z" fill="#fff" fill-rule="evenodd"/>
  <path d="m562.65 554.9c-2.5126 1.478-3.3255 2.3648-0.33256 4.6557 3.006 2.3009-1.3672-0.99766-1.1085-2.4757 0.25763-1.4722 3.9865-3.6774 1.4411-2.18z" fill="#fff" fill-rule="evenodd"/>
  <path d="m556.71 567.69c-2.5126 1.5519-3.3162 2.2296-0.33255 4.6557 2.9792 2.4225 4.8936 3.7137 0.84984 0.14781-4.0645-3.5842 1.9521-6.3287-0.51729-4.8035z" fill="#fff" fill-rule="evenodd"/>
  <path d="m536.31 572.38c-4.1754 2.217-3.5472 1.9584 3.0299 7.2053 6.5591 5.2326-3.0505-3.1949-4.0276-4.2862-0.94228-1.0524 5.1442-5.1208 0.99765-2.9191z" fill="#fff" fill-rule="evenodd"/>
  <path d="m519.57 576.78c-2.5126 1.5519-2.6234 3.3994 4.434 9.0897 7.0799 5.7084-6.5555-5.0776-4.7666-7.39 1.7394-2.2483 2.8019-3.2249 0.33255-1.6997z" fill="#fff" fill-rule="evenodd"/>
  <path d="m575.11 563.22c-3.0299 1.7736-3.1038 2.5496 0 4.8774 3.0687 2.3015-1.6627-1.478-1.4041-2.5865 0.25048-1.0735 4.4065-4.0484 1.4041-2.2909z" fill="#fff" fill-rule="evenodd"/>
  <path d="m551.35 546.89c-2.5126 1.5519-3.3255 2.3279-0.33255 4.6557 3.0291 2.356-0.8868-1.5519-1.3672-2.1431-0.44515-0.54788 4.169-4.0378 1.6997-2.5126z" fill="#fff" fill-rule="evenodd"/>
  <path d="m533.39 551.02c-2.5126 1.5519-3.1777 2.1062-0.33256 4.6557 2.8684 2.5703-1.1824-0.96071-0.92376-2.4387 0.25765-1.4722 3.7257-3.7422 1.2563-2.217z" fill="#fff" fill-rule="evenodd"/>
  <path d="m513.74 555.35c-2.5126 1.5519-3.1777 2.1061-0.33254 4.6557 2.8683 2.5704-1.1824-0.96069-0.92376-2.4387 0.25764-1.4722 3.7256-3.7422 1.2563-2.217z" fill="#fff" fill-rule="evenodd"/>
  <path d="m496.6 559.61c-3.2442 1.6041-3.7003 2.0539-0.33255 4.6557 3.3178 2.5632-1.5527-1.5419-1.4463-2.5432 0.10092-0.94961 5.0656-3.7377 1.7789-2.1125z" fill="#fff" fill-rule="evenodd"/>
  <path d="m540.48 538.9c-2.5126 1.5519-3.3112 2.278-0.33256 4.6557 2.9422 2.3486-1.1824-1.0346-1.1454-2.3648s3.9474-3.8161 1.478-2.2909z" fill="#fff" fill-rule="evenodd"/>
  <path d="m522.45 542.6c-2.5865 1.4041-3.3255 2.18-0.33256 4.6557 2.9438 2.435-1.4041-0.8868-1.1454-2.3648 0.25763-1.4722 4.0734-3.6999 1.478-2.2909z" fill="#fff" fill-rule="evenodd"/>
  <path d="m503 547.02c-2.5126 1.5519-3.1777 2.1062-0.33256 4.6557 2.8684 2.5703-1.1824-0.9607-0.92376-2.4387 0.25765-1.4722 3.7257-3.7422 1.2563-2.217z" fill="#fff" fill-rule="evenodd"/>
  <path d="m484.91 550.43c-3.5054 1.9177-3.1777 2.1062-0.33255 4.6557 2.8684 2.5703-1.455-1.6472-1.3418-2.5955 0.10081-0.8451 5.1396-3.956 1.6744-2.0602z" fill="#fff" fill-rule="evenodd"/>
  <path d="m422.28 516.99c-5.2821 2.9628-4.7457 1.655 7.5057 11.815 12.148 10.074-3.9896-4.899-7.2071-7.8363-3.1913-2.9134 5.0631-6.9859-0.29866-3.9784z" fill="#fff" fill-rule="evenodd"/>
  <path d="m475.23 542.01c-2.5126 1.5519-3.1777 2.1062-0.33256 4.6557 2.8684 2.5703-1.1824-0.96071-0.92374-2.4387 0.25764-1.4722 3.7257-3.7422 1.2563-2.217z" fill="#fff" fill-rule="evenodd"/>
  <path d="m464 534.32c-2.5126 1.5519-3.1777 2.1062-0.33256 4.6557 2.8684 2.5703-1.1824-0.96072-0.92375-2.4387 0.25764-1.4722 3.7257-3.7422 1.2563-2.217z" fill="#fff" fill-rule="evenodd"/>
  <path d="m453.65 526.05c-2.5126 1.5519-3.1777 2.1062-0.33256 4.6557 2.8684 2.5703-1.1824-0.96071-0.92373-2.4387 0.25762-1.4722 3.7256-3.7422 1.2563-2.217z" fill="#fff" fill-rule="evenodd"/>
  <path d="m443.9 517.77c-2.5126 1.5519-3.1777 2.1062-0.33254 4.6557 2.8683 2.5703-1.1824-0.96071-0.92375-2.4387 0.25762-1.4722 3.7257-3.7422 1.2563-2.217z" fill="#fff" fill-rule="evenodd"/>
  <path d="m494.3 538.61c-2.5126 1.5519-3.1777 2.1062-0.33255 4.6557 2.8684 2.5703-1.1824-0.96071-0.92374-2.4387 0.25763-1.4722 3.7256-3.7422 1.2563-2.217z" fill="#fff" fill-rule="evenodd"/>
  <path d="m511.1 534.04c-4.3601 2.2909-3.6211 2.2539-0.33255 4.6557 3.2196 2.3514-0.5031-0.96071-1.3941-2.2297-0.85785-1.2218 6.0567-4.7012 1.7266-2.426z" fill="#fff" fill-rule="evenodd"/>
  <path d="m528.51 530.63c-3.2516 1.9214-3.695 2.0322-0.33255 4.6557 3.3167 2.5878-1.478-0.88681-1.2194-2.3648 0.25764-1.4722 4.7489-4.18 1.5519-2.2909z" fill="#fff" fill-rule="evenodd"/>
  <path d="m518.09 522.5c-2.5126 1.5519-3.1777 2.1062-0.33255 4.6557 2.8684 2.5703-1.1824-0.9607-0.92375-2.4387 0.25763-1.4722 3.7256-3.7422 1.2563-2.217z" fill="#fff" fill-rule="evenodd"/>
  <path d="m506.2 514.89c-2.5126 1.5519-3.1777 2.1062-0.33254 4.6557 2.8684 2.5704-1.1824-0.96069-0.92376-2.4387 0.25764-1.4722 3.7257-3.7422 1.2563-2.217z" fill="#fff" fill-rule="evenodd"/>
  <path d="m500.21 525.82c-2.5126 1.5519-3.1777 2.1062-0.33254 4.6557 2.8683 2.5703-1.1824-0.9607-0.92376-2.4387 0.25764-1.4722 3.7257-3.7422 1.2563-2.217z" fill="#fff" fill-rule="evenodd"/>
  <path d="m488.68 517.33c-2.5126 1.5519-3.1777 2.1061-0.33255 4.6557 2.8684 2.5703-1.1824-0.96072-0.92375-2.4387 0.25763-1.4722 3.7256-3.7422 1.2563-2.217z" fill="#fff" fill-rule="evenodd"/>
  <path d="m481.59 530.7c-2.5126 1.5519-3.1777 2.1061-0.33255 4.6557 2.8684 2.5703-1.1824-0.96071-0.92374-2.4387 0.25762-1.4722 3.7256-3.7422 1.2563-2.217z" fill="#fff" fill-rule="evenodd"/>
  <path d="m471.98 523.24c-2.5126 1.5519-3.1777 2.1062-0.33255 4.6557 2.8683 2.5703-1.1824-0.96071-0.92376-2.4387 0.25763-1.4722 3.7257-3.7422 1.2563-2.217z" fill="#fff" fill-rule="evenodd"/>
  <path d="m477.89 509.49c-2.5126 1.5519-3.1777 2.1062-0.33256 4.6557 2.8684 2.5703-1.1824-0.9607-0.92375-2.4387 0.25764-1.4722 3.7257-3.7422 1.2563-2.217z" fill="#fff" fill-rule="evenodd"/>
  <path d="m462.01 515.7c-2.7519 1.379-3.2822 2.1062-0.43707 4.6557 2.8684 2.5703-1.4959-1.7445-1.394-2.5432 0.10127-0.7938 4.6663-3.5332 1.8311-2.1125z" fill="#fff" fill-rule="evenodd"/>
  <path d="m495.7 506.91c-2.5126 1.5519-3.1777 2.1062-0.33256 4.6557 2.8684 2.5704-1.1824-0.9607-0.92374-2.4387 0.25764-1.4722 3.7257-3.7422 1.2563-2.217z" fill="#fff" fill-rule="evenodd"/>
  <path d="m485.24 498.88c-2.7739 1.3429-3.4912 2.2629-0.33254 4.6557 3.1512 2.3871-1.6527-1.9013-1.5508-2.6477 0.1159-0.84915 4.6371-3.3411 1.8834-2.008z" fill="#fff" fill-rule="evenodd"/>
  <path d="m457.81 494.78c-2.7216 1.4474-3.7525 1.8449-0.33255 4.6557 3.3945 2.7899-1.6527-1.0652-1.394-2.5432 0.25763-1.4722 4.4269-3.5485 1.7266-2.1125z" fill="#fff" fill-rule="evenodd"/>
  <path d="m468.14 502.12c-2.6694 1.369-3.3867 2.3152-0.33255 4.6557s-1.6004-1.5878-1.4463-2.5432c0.17199-1.0661 4.4377-3.4761 1.7788-2.1125z" fill="#fff" fill-rule="evenodd"/>
  <path d="m414.19 494.02c-2.6432 1.3951-3.0816 2.3213-0.33254 4.6557 2.7642 2.3472-0.97329-1.3062-1.3679-2.0729-0.38428-0.74657 4.3233-3.9672 1.7005-2.5828z" fill="#fff" fill-rule="evenodd"/>
  <path d="m474.14 491.22c-2.6171 1.2906-3.3345 2.0016-0.33256 4.3422 3.0274 2.3604-1.6527-1.5878-1.4463-2.3864 0.20352-0.78754 4.354-3.2257 1.7789-1.9557z" fill="#fff" fill-rule="evenodd"/>
  <path d="m462.61 483.45c-3.8999 2.1184-2.6029 1.7926 0.34679 4.1854 2.9182 2.3673-1.8057-1.7009-1.5508-2.5432s5.104-3.7606 1.204-1.6422z" fill="#fff" fill-rule="evenodd"/>
  <path d="m447.82 487.61c-2.8523 1.4996-3.4651 2.2629-0.33255 4.6557s-1.522-1.6661-1.4202-2.4387c0.10578-0.80195 4.5845-3.7059 1.7527-2.217z" fill="#fff" fill-rule="evenodd"/>
  <path d="m431.85 492.35c-2.5126 1.5519-3.1777 2.1061-0.33255 4.6557 2.8684 2.5703-1.1824-0.96068-0.92376-2.4387 0.25764-1.4722 3.7257-3.7422 1.2563-2.217z" fill="#fff" fill-rule="evenodd"/>
  <path d="m441.83 499.74c-2.5126 1.5519-3.1777 2.1062-0.33254 4.6557 2.8683 2.5703-1.1824-0.96068-0.92375-2.4387 0.25762-1.4722 3.7257-3.7422 1.2563-2.217z" fill="#fff" fill-rule="evenodd"/>
  <path d="m451.62 507.41c-3.1919 1.6564-3.3345 2.1584-0.33256 4.6557 2.9973 2.4934-1.4959-1.6923-1.394-2.6477 0.10913-1.0228 4.814-3.6122 1.7266-2.008z" fill="#fff" fill-rule="evenodd"/>
  <path d="m434.59 509.49c-2.5126 1.5519-3.1777 2.1062-0.33256 4.6557 2.8684 2.5703-1.1824-0.9607-0.92373-2.4387 0.25762-1.4722 3.7256-3.7422 1.2563-2.217z" fill="#fff" fill-rule="evenodd"/>
  <path d="m424.13 502.08c-2.9045 1.3951-3.3606 2.0278-0.35867 4.4989 2.9839 2.4563-1.6546-1.6201-1.5508-2.5432 0.10081-0.89733 4.7507-3.3204 1.9095-1.9557z" fill="#fff" fill-rule="evenodd"/>
  <path d="m411.22 508.01c-3.1038 1.6628-3.4363 2.0877-0.33254 4.6557 3.0857 2.5531-0.23466-0.66007-1.1639-1.8475-0.90631-1.1581 4.5775-4.4588 1.4965-2.8082z" fill="#fff" fill-rule="evenodd"/>
  <path d="m401.02 500.09c-2.9045 1.3168-3.3867 2.0539-0.33255 4.6557 3.0285 2.58 0.0184-0.55942-1.2112-1.9945-1.2036-1.4047 4.4168-3.9637 1.5437-2.6612z" fill="#fff" fill-rule="evenodd"/>
  <path d="m391.08 492.06c-2.8522 1.4997-3.1777 2.1061-0.33253 4.6557 2.8683 2.5703-0.0868-0.78214-0.81926-2.1513-0.78746-1.4721 3.9728-3.9876 1.1518-2.5044z" fill="#fff" fill-rule="evenodd"/>
  <path d="m404.08 485.59c-2.7158 1.3302-3.307 2.1801-0.33256 4.6557 2.9727 2.4742-1.3862-1.6486-1.3117-2.5865 0.0728-0.91791 4.3601-3.3994 1.6443-2.0692z" fill="#fff" fill-rule="evenodd"/>
  <path d="m422.13 484.62c-3.2964 1.8654-3.3345 2.3152-0.33254 4.6557 3.0274 2.3604 1.19 0.15786-0.8715-1.4458-2.0939-1.6289 4.3767-5.0053 1.204-3.2099z" fill="#fff" fill-rule="evenodd"/>
  <path d="m438.65 480.82c-2.5126 1.5519-3.1777 2.1062-0.33255 4.6557 2.8684 2.5703-1.1824-0.96072-0.92375-2.4387 0.25763-1.4722 3.7257-3.7422 1.2563-2.217z" fill="#fff" fill-rule="evenodd"/>
  <path d="m452.6 476.08c-3.7418 1.6893-3.7003 1.7926-0.22803 4.2377 3.497 2.4625-1.7498-1.3029-1.4463-2.3864 0.30988-1.1064 5.3728-3.5209 1.6743-1.8512z" fill="#fff" fill-rule="evenodd"/>
  <path d="m441.38 467.74c-2.5126 1.5519-3.1777 2.1062-0.33254 4.6557 2.8683 2.5703-1.1824-0.96071-0.92376-2.4387 0.25764-1.4722 3.7257-3.7422 1.2563-2.217z" fill="#fff" fill-rule="evenodd"/>
  <path d="m429.63 474.24c-2.5126 1.5519-3.1777 2.1062-0.33256 4.6557 2.8684 2.5704-1.1824-0.96069-0.92374-2.4387 0.25763-1.4722 3.7257-3.7422 1.2563-2.217z" fill="#fff" fill-rule="evenodd"/>
  <path d="m413.48 478.02c-3.1397 1.4474-3.5958 2.1061-0.33256 4.6557 3.1987 2.4992 0.28076 0.0844-1.2373-2.0206-1.3984-1.9391 4.6236-4.0428 1.5698-2.635z" fill="#fff" fill-rule="evenodd"/>
  <path d="m422.84 468.55c-2.5126 1.5519-3.1777 2.1062-0.33255 4.6557 2.8684 2.5703-1.1824-0.96071-0.92376-2.4387 0.25764-1.4722 3.7257-3.7422 1.2563-2.217z" fill="#fff" fill-rule="evenodd"/>
  <path d="m405.17 471.88c-2.5126 1.5519-3.1777 2.1062-0.33254 4.6557 2.8684 2.5703-1.1824-0.9607-0.92375-2.4387 0.25762-1.4722 3.7257-3.7422 1.2563-2.217z" fill="#fff" fill-rule="evenodd"/>
  <path d="m379.16 465.6c-3.5472 1.3302-3.6947 1.5185 3.8058 7.5748 7.4642 6.027-1.8447-1.9949-4.3601-4.3601-2.5351-2.3837 4.0894-4.5404 0.55427-3.2146z" fill="#fff" fill-rule="evenodd"/>
  <path d="m391.95 460.64c-2.5126 1.5519-3.1777 2.1062-0.33255 4.6557 2.8684 2.5703-1.1824-0.9607-0.92373-2.4387 0.25762-1.4722 3.7256-3.7422 1.2563-2.217z" fill="#fff" fill-rule="evenodd"/>
  <path d="m418.01 450.63c-4.4983 1.8132-4.3273 1.6359 2.7505 7.0595 7.0704 5.4179-3.1158-2.9464-4.5816-4.3722s6.3665-4.5154 1.8311-2.6873z" fill="#fff" fill-rule="evenodd"/>
  <path d="m710.71 317.04c-4.8358-1.7805-6.3659-1.1166-8.1699 1.0254l-34.842 232.54 9.7652-4.9036 33.247-228.66z" fill="#1a1a1a" fill-rule="evenodd" stroke="#333" stroke-linecap="round" stroke-linejoin="round" stroke-width=".94592"/>
  <path d="m635.63 529.3-159.62-97.844c-2.0133 1.2357-3.7744 2.6226-3.8428 5.0252l159.03 97.991c0.28112-2.2729 1.7881-3.9839 4.434-5.173z" fill="#808080" fill-rule="evenodd"/>
  <path transform="matrix(-1.1824 0 0 1.1824 750.03 227.19)" d="m166.44 236.84 62.491-41.189 0.53033 0.88388-61.43 41.719-1.591-1.4142z" fill="#fff" fill-rule="evenodd" filter="url(#c)" opacity=".67"/>
  <path transform="matrix(-1.1824 0 0 1.1824 750.03 227.19)" d="m114.55 270.07 15.556-10.076 0.53033 0.88388-14.496 10.607-1.591-1.4142z" fill="#fff" fill-rule="evenodd" filter="url(#c)" opacity=".67"/>
  <path transform="matrix(-1.1824 0 0 1.1824 750.03 227.19)" d="m114.55 270.07 15.556-10.076 0.53033 0.88388-14.496 10.607-1.591-1.4142z" fill="#fff" fill-rule="evenodd" filter="url(#c)" opacity=".67"/>
  <path transform="matrix(-1.1824 0 0 1.1824 750.03 227.19)" d="m166.44 236.84 62.491-41.189 0.53033 0.88388-61.43 41.719-1.591-1.4142z" fill="#fff" fill-rule="evenodd" filter="url(#c)" opacity=".67"/>
  <path d="m622.65 545.52c-2.9332-2.7182-10.493 2.3745-9.7525 5.7648l9.7525-5.7648z" fill="#666" fill-rule="evenodd" opacity=".9972" stroke="#000" stroke-linecap="round" stroke-linejoin="round" stroke-width=".23648"/>
  <path d="m391.43 516.4c2.2004 0.10843 4.1839 0.69916 5.4686 1.7736l44.82 37.504c3.0468 2.5481 1.9739 6.3385-2.4756 8.4985l-11.528 5.5056c-39.291-7.0896-13.082-47.698-47.702-50.03 1.54-0.68657 4.6926-2.0692 4.6926-2.0692 2.1015-0.90566 4.5246-1.2909 6.7249-1.1824z" fill="url(#g)"/>
 </g>
 <g transform="translate(-84.52 -223.49)">
  <path d="m458.37 256.18 237.41 77.597-31.379 198.12-204.7-122.99z" fill="#f0f0f0"/>
  <path d="m471.41 270.36 76.19 26.234-0.32427 6.1874-75.865-26.865z" fill="#32c832"/>
  <path d="m547.6 296.59 24.87 8.5635-0.44666 6.3875-24.748-8.7636z" fill="#6464c8"/>
  <path d="m546.22 322.8 24.353 9.3969-0.45634 6.5259-24.228-9.5926z" fill="#32c832"/>
  <path d="m570.58 332.2 71.571 27.617-0.8696 7.0823-71.158-28.173z" fill="#6464c8"/>
  <path d="m532.79 344.49 71.057 30.455-0.67047 6.963-70.666-31.02z" fill="#6464c8"/>
  <path d="m543.37 377.22 91.337 43.175-0.90809 7.3958-90.779-43.884z" fill="#6464c8"/>
  <path d="m562.51 447.56 95.528 54.047-1.2012 8.0372-94.839-54.755z" fill="#6464c8"/>
  <path d="m587.01 429.03 65.34 33.869-1.0888 7.7475-64.887-34.356z" fill="#6464c8"/>
  <path d="m507.09 387.61 79.917 41.425-0.63525 7.2609-79.455-42.069z" fill="#32c832"/>
 </g>
 <g transform="matrix(.32966 0 0 .33027 -119.12 -7.7106)">
  <path transform="matrix(21.998 0 0 20.405 1327.5 -31160)" d="m0.53712 1552.4c0 13.201-9.9197 23.902-22.156 23.902s-22.156-10.701-22.156-23.902 9.9197-23.902 22.156-23.902 22.156 10.701 22.156 23.902z" fill="url(#f)" stroke="#2728c9" stroke-linecap="round" stroke-linejoin="round" stroke-width=".07152"/>
  <path d="m664.88 441.16c-0.90622-11.138 16.153-11.687 39.034-8.806-7.0508 3.8676-4.8932 9.8988 4.4266 17.612-14.487 0.37515-28.974 3.0689-43.461-8.8059z" fill="url(#ad)" fill-rule="evenodd" stroke="url(#ac)" stroke-linejoin="round" stroke-width="2.182"/>
  <path d="m716.37 441.16c2.7521-1.2778 18.077-2.4842 22.144 0-8.2634 5.2352-14.076 11.095-17.301 17.612-4.7199-4.1141-11.015-7.338-4.8435-17.612z" fill="url(#ab)" fill-rule="evenodd" stroke="url(#aa)" stroke-linejoin="round" stroke-width="2.182"/>
  <path d="m755.81 458.77c11.516 11.026 6.5674 28.146 4.9601 44.03 6.0026-7.7342 18.347-1.6344 16.534-26.418-7.9096-19.519-14.834-20.993-21.494-17.612z" fill="url(#z)" fill-rule="evenodd" stroke="url(#y)" stroke-linejoin="round" stroke-width="2.182"/>
  <path d="m976.43 79.19c4.945 6.4979 3.1155 9.86 0.0543 13.224-14.678-5.8709-26.706-7.3529-22.256-13.224 9.0348-2.4956 16.452-2.5203 22.202 0z" fill="url(#x)" fill-rule="evenodd"/>
  <path d="m1075.3 123.22c-15.112-3.3084-30.666-7.3882-34.602 8.8059 10.117 2.0897 19.112 9.3176 25.951 26.418 2.8835-2.935 10.694 2.279 8.6505-8.8059l-12.686-17.612c9.7074 4.9921 18.762 1.3544 29.986 26.418l3.8852-8.8059c-5.2145-15.702-10.429-19.493-21.186-26.418z" fill="url(#w)" fill-rule="evenodd" stroke="url(#v)" stroke-linecap="round" stroke-linejoin="round" stroke-width="3.273"/>
  <path d="m1231 220.08c-35.451-51.343-96.437-99.727-129.76-123.28 27.46 24.299 23.665 36.361 8.6504 44.03-2.4541 9.3608-3.2473 19.286 13.682 35.224 19.229 16.814 16.869 24.636 0 26.418-23.143-5.3073-26.662 1.1897-13.682 17.612 12.361 9.233 19.796 23.483 29.694 35.224 10.437-3.4018 35.419 11.703 22.209-21.789-6.4145-16.549-6.7221-29.99 0-39.852 5.9627-2.1091 8.2305-9.233 8.6505-17.612 14.642 17.812 40.369 29.353 60.553 44.03z" fill="url(#u)" fill-rule="evenodd" stroke="url(#t)" stroke-linecap="round" stroke-linejoin="round" stroke-width="3.273"/>
  <path d="m1254.4 290.6c-46.307-53.322-75.886-44.409-106.58-3.3648-1.2129 10.675 1.0587 20.958 8.6505 30.638-20.136 12.418-10.829 39.172-21.224 48.616 0.8694 11.604 2.0218 23.387-4.7269 30.143 9.8512 1.3279 15.281 9.4065 17.301 22.693v57.897c28.662 38.904 58.609 85.914 77.854 65.386 8.9431-12.166 19.281-10.579 32.031-9.1802-8.2414-14.265 9.0119-15.27 26.686-18.788 13.661 9.7253 24.547 27.397 19.137 80.803 5.6532 67.513-24.773 135.02-56.728 202.54 71.355-114.81 151.71-297.23 15.516-530.97-2.8834 5.8709-5.0325 17.723-7.9159 23.594z" fill="url(#d)" fill-rule="evenodd" stroke="url(#d)" stroke-linecap="round" stroke-linejoin="round" stroke-width="3.273"/>
  <path d="m608.75 388.33c21.577 7.1003 36.903 19.149 47.146 35.224l-8.7645 14.576c-17.779-21.615-36.661-30.877-55.682-38.59l17.301-11.21z" fill="url(#s)" fill-rule="evenodd" stroke="url(#r)" stroke-linecap="round" stroke-linejoin="round" stroke-width="2.182"/>
  <path d="m754.46 949.03c14.369-23.077 25.01-49.656 60.553-52.836 33.627 0.95013 50.274-32.668 69.204-61.642 31.952-9.5518 62.632-21.435 77.854-61.642-13.548-18.582 0.50709-39.608 25.951-61.642 33.33-29.025 20.677-45.399-8.6505-57.186-18.184-4.5263-51.586-12.926-103.81-26.115-26.854-1.9673-23.068-32.526-34.602-48.789-4.9243-15.989-33.886-22.461-69.204-26.418-24.843-40.636-51.35-42.285-77.854-44.03-23.553-17.087-49.198-19.274-77.854 0-1.7214 9.7473-7.9112 16.245-22.399 0-23.789 14.86-31.789 3.7566-33.547-17.612 13.141-50.862-8.8331-47.252-30.558-44.03 11.811-11.459 15.622-31.063 17.301-52.836-84.02 66.752-54.133-13.849-51.903-61.642 27.567 1.4821 64.261-52.83 103.81 8.806-5.7415 10.464-4.8043 19.418 4.7686 26.418 2.9776-46.807 13.239-72.297 29.833-79.254 19.41-1.1853 34.516-16.611 47.128-40.286 6.6176-10.432 22.743-16.022 39.376-21.355-2.1087-14.296 5.9345-20.641 25.951-17.612 14.982 6.8299 29.935 13.164 43.252-8.806-16.234-3.525-28.568-10.358-34.602-22.536-12.402-22.725 6.7884-13.29 25.951-3.8817 10.061-8.1834 21.149-12.708 34.602-8.8059-14.381 11.509-20.8 21.773 8.6505 26.418 20.692 5.9528 9.4144-17.81-8.6505-47.881-17.171-20.835-32.841-34.414-43.252-22.567-11.205-19.079-22.109-39.939-43.252 0-26.881 30.55-45.197 42.122-43.252 8.8059-13.952-7.6224-26.092-15.398 0-26.418 9.5333-9.012 18.793-18.365 43.252-8.806 18.308-12.446 34.645-7.7818 51.264 5.5566 23.169-7.286 44.219-12.728 43.891-31.974-13.227-16.759-34.114-7.5282-51.903-8.8059 19.318-5.2255 33.862-13.367 69.204-8.806 13.883 0.54419 18.57 10.449 8.6505 35.224 20.596 39.108 35.944 29.183 54.808-2.5995 10.266-4.1731 26.278-5.7467 36.544-9.9199-20.672-18.835-53.344-40.827-62.217-45.935-118.67 0.06251-251.79 37.817-323.25 111.29-34.502 43.764-82.261 81.508-94.165 148.4-9.8305 57.404-25.897 160.48-0.99038 106.97-1.9867 20.091 4.1622 36.04 25.951 44.03 12.381 17.099 25.807 29.942 43.252 26.418 10.097 26.541 15.507 55.468 48.318 70.448 20.229-11.435 26.182 5.2281 20.885 44.03-11.614 10.152-21.124 23.515-25.951 44.03-14.551 25.211 16.8 61.636 43.252 96.866 19.04 35.588 71.771 59.263 69.204 105.67-1.1586 43.316 1.7832 84.895 20.879 119.62 26.102 37.556 45.929 52.296 48.324 3.6632z" fill="url(#q)" fill-rule="evenodd"/>
  <path transform="matrix(11.752 0 0 10.481 2563 -15906)" d="m-113.92 1558.7c0 19.225-15.053 34.809-33.623 34.809s-33.623-15.585-33.623-34.809 15.053-34.809 33.623-34.809 33.623 15.585 33.623 34.809z" fill="url(#p)"/>
  <path transform="matrix(21.998 0 0 20.405 1324.3 -31160)" d="m0.53712 1552.4c0 13.201-9.9197 23.902-22.156 23.902s-22.156-10.701-22.156-23.902 9.9197-23.902 22.156-23.902 22.156 10.701 22.156 23.902z" fill="url(#o)"/>
  <path d="m864.57 525.29c-84.129 96.529-75.169 64.851-112.46 96.866 8.1018 29.64-10.16 64.16 56.334 82.993 40.698-95.64 87.74-58.9 133.98-38.963 40.884-9.4224 42.27-37.766 34.602-70.448-76.37-76.26-92.617-93.294-112.46-70.448z" fill="url(#n)" fill-rule="evenodd"/>
  <path d="m1158.7 322.75c-43.043-56.851-60.058-4.7772-77.854 44.03-7.9863 16.302-6.3913 30.654 0 44.03 8.6505 8.806 9.7331 13.21 18.384 22.016-24.523 10.153-42.609 14.342-61.636 74.85-23.068-11.3-46.136-7.5599-69.204-4.6187 15.44-12.379 36.482-15.257 60.553-12.993 4.0285-26.33 21.886-51.257 51.903-65.234-1.4426-6.1395-8.2906-13.381-17.301-5.2131-5.767 12.107-11.534 17.612-17.301 26.418-10.811-1.1025-6.4867-17.612 0-26.418 7.8962-8.8966 17.63-12.805 17.301-44.03l-43.252 17.612c-22.541-16.257-16.454-32.512-4.7727-48.769 19.369-17.056 3.3276-26.387-17.077-34.768-93.25-6.9074-66.486-60.804-51.231-110.19-16.009 8.8059-40.666 1.1034-48.026 26.418-112.34-61.245-46.136-135.02-69.204-202.54 110.91 17.855 210.82 41.492 233.56 105.67 55.656 50.178 102.17 105.86 95.155 193.73z" fill="url(#m)" fill-rule="evenodd"/>
  <path d="m1015.5 454.84c7.2471-2.6321-42.93-24.595-59.769-44.03-5.0294 20.547-13.151 41.095 3.9888 61.642 24.568 7.8127 42.742 0.98189 55.781-17.612z" fill="url(#l)" fill-rule="evenodd"/>
  <path d="m933.77 454.84c-10.966 8.806-18.382 17.612-12.191 26.418 9.8307 0.99507 19.662 17.224 29.492 0 13.036-6.91 6.6962-16.638 0-26.418-1.0578-3.1957-7.6091-2.6638-17.301 0z" fill="url(#k)" fill-rule="evenodd"/>
  <path d="m868.22 472.45c-34.368 5.1409-45.788 21.962-64.2 35.224-10.461 11.359-18.326 4.2268-25.951-4.6187 4.2988-12.222 2.6918-25.303 25.951-34.768 15.708 4.1793 31.415-0.0203 47.123-13.449 11.355 1.2584 20.004 4.7218 17.077 17.612z" fill="url(#j)" fill-rule="evenodd"/>
  <path d="m1128.6 442.21c6.9975 7.1443 9.708 13.188 5.1749 20.331l-9.7316 9.9067c-1.4096-8.8059-5.3467-17.612-12.52-26.418 5.6924-9.6064 11.385-8.8262 17.077-3.82z" fill="url(#i)" fill-rule="evenodd"/>
 </g>
</svg>
